<?xml version="1.0" encoding="utf-8"?>
<!-- Generator: Adobe Illustrator 28.2.0, SVG Export Plug-In . SVG Version: 6.00 Build 0)  -->
<svg version="1.1" id="Layer_1" xmlns="http://www.w3.org/2000/svg" xmlns:xlink="http://www.w3.org/1999/xlink" x="0px" y="0px"
	 viewBox="0 0 7448.2 756.2" style="enable-background:new 0 0 7448.2 756.2;" xml:space="preserve">
<style type="text/css">
	.st0{fill:#EC1C24;}
	.st1{opacity:0.18;fill:#EC1C24;enable-background:new    ;}
	.st2{opacity:0.56;fill:#EC1C24;enable-background:new    ;}
	.st3{fill:#C4C4C4;stroke:#000000;stroke-miterlimit:10;}
	.st4{fill:#FFFFFF;}
	.st5{fill:none;}
	.st6{fill:none;stroke:#EC1C24;stroke-width:14;stroke-miterlimit:10;}
	.st7{fill:none;stroke:#000000;stroke-width:15;stroke-miterlimit:10;}
	.st8{font-family:'Poppins-Medium';}
	.st9{font-size:87.65px;}
</style>
<circle class="st0" cx="1459.8" cy="304.9" r="237.4"/>
<g>
	<circle class="st1" cx="1460.5" cy="304.6" r="304.6"/>
	<circle class="st2" cx="1460.5" cy="306.8" r="271.1"/>
	<circle class="st0" cx="1460.5" cy="304.9" r="237.4"/>
</g>
<g>
	<circle class="st1" cx="304.6" cy="304.6" r="304.6"/>
	<circle class="st2" cx="304.6" cy="306.8" r="271.1"/>
	<circle class="st0" cx="304.6" cy="304.9" r="237.4"/>
</g>
<circle class="st3" cx="3761.1" cy="304.9" r="237.4"/>
<circle class="st3" cx="4837.4" cy="304.9" r="237.4"/>
<circle class="st3" cx="6009" cy="304.9" r="237.4"/>
<circle class="st3" cx="7210.3" cy="304.9" r="237.4"/>
<circle class="st3" cx="2586" cy="304.9" r="237.4"/>
<path class="st4" d="M7075.4,300.2c-0.5-36.4,21.6-92.6,79.5-118.8c55.1-24.9,118.6-9.6,156.6,32.9c-19.1,7-38,13.8-57.7,21
	c1.6-3.6,2.9-6.3,4.1-9c2.8-6.5,0.9-12.2-5.5-15.2c-16.3-7.7-32.6-15.3-49-22.9c-4.3-2-8.4-1.4-12,1.8c-3.8,3.3-4.4,7.5-3.1,12.1
	c0.7,2.4,1.7,4.7,2.7,7.5c-5.7,2.1-11.3,4.2-16.9,6.2c-18.7,6.8-37.4,13.6-56.1,20.4c-7.4,2.7-10,8.2-7.4,15.6
	c3.7,10.4,7.5,20.8,11.3,31.4c-2.8,1.1-5.4,2.1-8,3c-4.6,1.7-6.3,4.4-5.1,7.8c1.4,3.7,4.3,4.7,9.1,2.9c25.5-9.3,51.1-18.6,76.6-27.9
	c56-20.4,111.9-40.7,167.8-61.1c3.4-1.3,4.6-0.3,5.7,2.8c7.8,21.8,15.8,43.6,23.7,65.3c1.1,3.1,0.2,5.2-2.9,6.3
	c-57.7,21-115.4,42-173.2,63c-52.2,19-104.3,37.9-156.5,57c-3.5,1.3-5,1-6.3-2.8c-7.8-22.1-15.9-44-24-66c-1.1-3-0.5-4.1,2.5-5.2
	c19.3-6.9,38.6-13.9,57.8-21.1c2.1-0.8,4.5-2.7,5.2-4.7c1.6-4.2-2.6-8-7-6.7C7083.4,297.2,7079.5,298.8,7075.4,300.2L7075.4,300.2
	L7075.4,300.2z M7283.7,284.3c7.6-5.6,7.1-12.4,3.9-19.7c-2.9-6.5-9-9.5-15.8-7.2c-4.3,1.4-8.5,3-12.8,4.6c-4.1,1.6-5.5,4.2-4.1,8.3
	c4,11.2,8.1,22.5,12.3,33.6c1.4,3.7,4.4,5,7.4,3.8c3.1-1.2,4.4-4.1,3.3-7.8c-0.6-2.1-1.5-4.1-2.5-6.9c5,2.5,9.1,4.6,13.3,6.7
	c4,1.9,7.2,1.2,8.8-2c1.6-3.2,0.4-6.2-3.6-8.3C7290.8,287.8,7287.4,286.1,7283.7,284.3L7283.7,284.3L7283.7,284.3z M7370.5,264.6
	c-0.1-0.9,0-1.9-0.3-2.7c-3.1-8.6-6-17.4-9.6-25.8c-2.2-5.4-8.4-7.8-14-6c-4.8,1.5-9.5,3.2-14.2,5.1c-3.7,1.4-4.9,4.2-3.6,7.9
	c4,11.3,8.1,22.5,12.2,33.7c1.4,3.9,4.2,5.1,8.2,3.8c4.5-1.5,9-3.1,13.5-4.9C7367.6,273.7,7370.1,269.8,7370.5,264.6L7370.5,264.6
	L7370.5,264.6z M7091.1,365.9c-0.1-0.9,0-2.1-0.4-3.1c-2.9-8.2-5.7-16.4-9-24.4c-2.3-5.7-8.6-8.3-14.4-6.5
	c-4.7,1.5-9.3,3.2-13.9,4.9c-3.9,1.5-5.2,4.2-3.8,8.1c4,11.2,8.1,22.5,12.3,33.7c1.4,3.7,4.1,5.1,7.8,3.9c4.8-1.6,9.5-3.2,14.1-5.2
	C7088.5,375.1,7090.9,371.3,7091.1,365.9L7091.1,365.9L7091.1,365.9z M7311,274.4c3.6-1.4,6.9-2.5,10.1-3.8c3.8-1.5,5.4-4.5,4.2-7.6
	c-1.2-3.2-4.3-4.4-8.1-3.1c-3.3,1.1-6.6,2.3-10.2,3.6c-0.7-2-1.4-3.9-2.1-5.9c4.8-1.8,9.3-3.4,13.7-5.1c3.6-1.4,5-4.2,4-7.4
	c-1-3.1-4.2-4.5-7.7-3.3c-6.3,2.2-12.6,4.5-18.8,6.8c-4.1,1.6-5.2,4.1-3.7,8.4c4,11,8,22,12,33c1.6,4.4,4.2,5.5,8.6,4
	c5.8-2,11.6-4.2,17.4-6.3c4.4-1.6,6.1-4.6,4.9-8c-1.2-3.3-4.6-4.4-8.9-2.8c-4.2,1.5-8.4,3.1-12.8,4.7
	C7312.7,278.9,7312,276.9,7311,274.4L7311,274.4L7311,274.4z M7236.3,302c0.4-0.4,0.5-0.6,0.7-0.7c3-1.2,6.1-2.3,9.1-3.5
	c4.1-1.6,5.6-4.6,4.3-7.9c-1.2-3.1-4.4-4.2-8.3-2.8c-3.3,1.1-6.5,2.3-10,3.5c-0.8-2.1-1.4-3.9-2.2-5.9c5-1.9,9.7-3.5,14.4-5.4
	c3.3-1.3,4.5-4.4,3.3-7.4c-1.2-3-4.1-4.4-7.4-3.2c-6.4,2.2-12.8,4.5-19.1,7c-3.9,1.5-5.1,4.1-3.7,8.1c4,11.1,8,22.2,12.1,33.3
	c1.6,4.3,4.2,5.5,8.6,3.9c5.9-2.1,11.8-4.3,17.7-6.5c4.2-1.6,5.7-4.4,4.5-7.8c-1.1-3.2-4.5-4.4-8.5-2.9c-4.3,1.5-8.6,3.1-13.2,4.7
	C7237.8,306.1,7237.1,304,7236.3,302L7236.3,302L7236.3,302z M7099.7,332.2c4.6-1.7,8.9-3.3,13.3-4.9c4.1-1.6,5.7-4.5,4.4-7.9
	c-1.2-3.1-4.3-4.2-8.2-2.9c-5.9,2.1-11.9,4.2-17.8,6.4c-4.5,1.7-5.8,4.3-4.1,8.9c3.9,10.8,7.8,21.5,11.8,32.3c1.8,4.8,4.3,6,9.1,4.3
	c5.7-2,11.4-4.1,17-6.2c4.4-1.6,6.2-4.5,5-7.9c-1.2-3.4-4.4-4.4-8.9-2.9c-4.2,1.5-8.4,3-12.9,4.6c-0.9-2.5-1.6-4.7-2.4-7.1
	c3.6-1.3,6.8-2.4,9.9-3.7c3.8-1.5,5.5-4.4,4.4-7.6c-1.2-3.4-4.3-4.6-8.5-3.2c-3.3,1.1-6.5,2.3-10,3.5
	C7101,336,7100.4,334.2,7099.7,332.2L7099.7,332.2L7099.7,332.2z M7200.5,305.5c-3.4-4.4-6.6-8.8-9.9-13c-2.7-3.4-6-4.2-8.8-2.2
	c-2.8,2.1-3,5.5-0.4,9c7,9.4,14.2,18.7,21.2,28c1.9,2.6,4.2,4,7.5,2.9c3.1-1.1,3.8-3.7,3.6-6.7c-0.6-11.6-1.1-23.2-1.6-34.8
	c-0.2-4.9-2.6-7.4-6.5-7.1c-3.6,0.3-5.3,3.1-5.1,7.8C7200.6,294.7,7200.5,300,7200.5,305.5L7200.5,305.5L7200.5,305.5z
	 M7145.8,342.4c-0.7-1.8-1.3-3.3-1.9-4.8c-2.9-8-5.8-16.1-8.8-24c-1.4-3.7-4.3-5-7.4-3.8c-3.2,1.2-4.5,4.1-3.3,7.7
	c3.4,9.6,6.8,19.2,10.5,28.6c2.4,6.3,8.6,9,15.1,6.9c4.2-1.4,8.3-2.9,12.4-4.5c4.6-1.7,6.2-4.3,5-7.8c-1.1-3.5-4.3-4.5-8.8-3
	C7154.5,339.3,7150.3,340.8,7145.8,342.4L7145.8,342.4L7145.8,342.4z M7168.8,295.5c-5.5,0.2-7.9,4.1-6.3,8.6
	c4,11.1,8,22.2,12.1,33.3c1.3,3.6,4.3,5.1,7.4,4c3-1,4.6-4.2,3.4-7.7c-4.1-11.5-8.2-23-12.6-34.3
	C7172.1,297.5,7169.7,296.3,7168.8,295.5L7168.8,295.5L7168.8,295.5z"/>
<path class="st4" d="M7220.9,411.7c-16.4-7.6-31.9-14.9-47.9-22.3c3-6.4,5.8-12.6,8.8-18.6c0.3-0.7,1.3-1.2,2-1.4
	c34.4-12.5,68.8-25.1,103.7-37.8c3.9,10.7,7.8,21.2,11.7,32c-6.4,2.4-12.5,4.6-18.6,6.9c-4.7,1.7-6.5,4.6-5.2,8
	c1.4,3.5,4.4,4.4,9.3,2.7c5.8-2.1,11.6-4.1,17.4-6.3c7.7-2.8,10.4-8.5,7.6-16.2c-3.7-10.3-7.5-20.5-11.3-31
	c15.9-5.8,31.6-11.5,47.9-17.4c-0.8,21.5-6.1,41-16,59.3c-15.1,27.8-37.1,48.2-66.2,60.7c-57.2,24.6-119.8,5.6-154.1-34
	c18.8-6.8,37.4-13.6,56.7-20.6c-1.5,3.4-2.8,6.1-4,8.8c-2.9,6.7-1,12.5,5.5,15.5c16.2,7.7,32.4,15.2,48.6,22.7
	c4.4,2,8.7,1.5,12.3-1.8c3.7-3.3,4.3-7.5,2.8-12.1c-0.8-2.4-1.6-4.7-2.5-7.4c8.9-3.3,17.7-6.4,26.4-9.7c1.6-0.6,3.8-1.5,4.3-2.7
	c0.7-2,0.9-4.7,0-6.6c-1.1-2.4-3.8-3-6.5-2c-8.8,3.2-17.5,6.3-26.3,9.5c-2.1,0.8-4.3,1.5-6.4,2.4c-4.3,1.7-5.5,4.3-4,8.7
	C7218.1,404.2,7219.4,407.5,7220.9,411.7L7220.9,411.7L7220.9,411.7z"/>
<path class="st4" d="M7382.6,298.8c-2.7,4.6-5,9.5-8.3,13.6c-10.3,12.6-13.1,26.4-7.5,41.7c6.4,17.7-0.6,32.9-18.2,39.4
	c-15.2,5.5-24.8,16.2-27,32.2c-2,15.2-16.3,29.1-36,25.1c-15.8-3.2-29.1,2-39.4,14.5c-11.6,14-29.1,15.6-43,3.7
	c-12.3-10.5-26.1-12.9-41.3-7.5c-17.8,6.4-33-0.5-39.4-18.1c-5.8-15.7-17-24.9-33.6-27.4c-5.2-0.8-9.9-2.7-14.5-6.8
	c4-1.5,7.5-2.8,11.1-4c4-1.5,8.4-4.6,12-3.9c3.5,0.7,6.2,5.4,9.2,8.4c31.1,30.1,68.2,44.5,111.4,42.7c65.1-2.8,123-49.7,137-117.9
	c1.7-8.2,2.1-16.7,2.8-25.1c0.2-2.5,0.9-3.8,3.3-4.6c6.8-2.2,13.4-4.8,20.1-7.2C7381.7,297.9,7382.2,298.3,7382.6,298.8
	L7382.6,298.8L7382.6,298.8z"/>
<path class="st4" d="M7247.4,221.5c-2.9,6.3-5.6,12.1-8.4,17.9c-0.5,1-1.6,1.9-2.7,2.3c-34,12.4-68.1,24.8-102.2,37.2
	c-0.3,0.1-0.7,0.1-1.4,0.2c-3.8-10.5-7.6-21-11.6-31.7c10.1-3.7,20-7.3,29.9-10.9c15.8-5.8,31.7-11.5,47.5-17.3
	c5.3-1.9,6.4-4.3,4.6-9.6c-1.1-3.1-2.2-6.1-3.6-10.3C7216,206.9,7231.5,214.1,7247.4,221.5L7247.4,221.5L7247.4,221.5z"/>
<path d="M7283.7,284.3c3.8,1.9,7.1,3.5,10.4,5.2c3.9,2,5.2,5.1,3.6,8.3c-1.6,3.1-4.9,3.9-8.8,2c-4.2-2-8.3-4.2-13.3-6.7
	c1,2.8,1.8,4.8,2.5,6.9c1.1,3.6-0.1,6.5-3.3,7.8c-3.1,1.2-6.1-0.2-7.4-3.8c-4.2-11.2-8.3-22.4-12.3-33.6c-1.5-4.1,0-6.7,4.1-8.3
	c4.2-1.6,8.5-3.2,12.8-4.6c6.8-2.2,12.9,0.7,15.8,7.2C7290.8,271.9,7291.3,278.6,7283.7,284.3L7283.7,284.3L7283.7,284.3z
	 M7269.6,277.1c3.2-1.2,5.9-2.1,8.9-3.3c-0.7-2.1-1.4-3.9-2.1-6c-3.1,1.2-5.9,2.2-8.9,3.3C7268.2,273.1,7268.8,274.9,7269.6,277.1z"
	/>
<path d="M7370.5,264.6c-0.4,5.2-2.9,9.1-7.8,11.1c-4.4,1.8-8.9,3.4-13.5,4.9c-3.9,1.3-6.7,0.1-8.2-3.8c-4.1-11.2-8.2-22.4-12.2-33.7
	c-1.3-3.8-0.1-6.5,3.6-7.9c4.7-1.8,9.4-3.6,14.2-5.1c5.6-1.8,11.8,0.6,14,6c3.5,8.5,6.4,17.2,9.6,25.8
	C7370.5,262.7,7370.4,263.7,7370.5,264.6L7370.5,264.6L7370.5,264.6z M7359.2,264.8c-3-8.3-5.9-16-8.8-23.9c-3.2,1.2-6,2.3-9,3.4
	c3,8.1,5.8,15.8,8.7,23.8C7353.2,267,7356,265.9,7359.2,264.8z"/>
<path d="M7091.1,365.9c-0.2,5.4-2.6,9.2-7.3,11.3c-4.6,2-9.4,3.7-14.1,5.2c-3.7,1.2-6.4-0.1-7.8-3.9c-4.2-11.2-8.3-22.4-12.3-33.7
	c-1.4-3.9,0-6.6,3.8-8.1c4.6-1.8,9.2-3.5,13.9-4.9c5.9-1.8,12.1,0.9,14.4,6.5c3.3,8,6.1,16.2,9,24.4
	C7091,363.8,7091,365,7091.1,365.9L7091.1,365.9L7091.1,365.9z M7062.2,345.9c2.9,8,5.8,15.8,8.7,23.9c3.1-1.2,5.9-2.2,8.5-3.2
	c0-0.6,0.2-0.9,0.1-1.1c-1.8-5-3.5-9.9-5.4-14.9C7072.1,345.1,7068.1,343.5,7062.2,345.9L7062.2,345.9L7062.2,345.9z"/>
<path d="M7311,274.4c0.9,2.5,1.7,4.5,2.6,7c4.4-1.6,8.6-3.2,12.8-4.7c4.4-1.6,7.7-0.5,8.9,2.8c1.3,3.4-0.4,6.3-4.9,8
	c-5.8,2.2-11.6,4.3-17.4,6.3c-4.4,1.5-7,0.4-8.6-4c-4.1-11-8.1-22-12-33c-1.5-4.3-0.4-6.8,3.7-8.4c6.2-2.4,12.5-4.6,18.8-6.8
	c3.5-1.2,6.7,0.2,7.7,3.3c1.1,3.2-0.4,6-4,7.4c-4.4,1.7-8.9,3.4-13.7,5.2c0.7,2.1,1.4,3.9,2.1,5.9c3.6-1.3,6.9-2.5,10.2-3.6
	c3.8-1.3,6.9-0.1,8.1,3.1c1.2,3.2-0.4,6.1-4.2,7.6C7318,271.8,7314.7,273,7311,274.4L7311,274.4L7311,274.4z"/>
<path d="M7236.3,302c0.7,2,1.5,4.1,2.4,6.6c4.5-1.6,8.8-3.2,13.2-4.7c4.1-1.4,7.4-0.3,8.5,2.9c1.2,3.4-0.4,6.2-4.5,7.8
	c-5.9,2.2-11.8,4.4-17.7,6.5c-4.4,1.6-7,0.4-8.6-3.9c-4.1-11.1-8.1-22.2-12.1-33.3c-1.4-4-0.2-6.6,3.7-8.1c6.3-2.4,12.7-4.7,19.1-7
	c3.3-1.1,6.3,0.2,7.4,3.2c1.2,3-0.1,6.1-3.3,7.4c-4.6,1.9-9.4,3.5-14.4,5.4c0.7,2,1.4,3.8,2.2,5.9c3.5-1.2,6.7-2.4,10-3.5
	c3.9-1.3,7-0.3,8.3,2.8c1.4,3.3-0.2,6.3-4.3,7.9c-3,1.2-6.1,2.3-9.1,3.5C7236.8,301.4,7236.7,301.7,7236.3,302L7236.3,302
	L7236.3,302z"/>
<path d="M7099.7,332.2c0.7,2,1.3,3.8,2.1,5.9c3.5-1.2,6.7-2.4,10-3.5c4.1-1.4,7.3-0.2,8.5,3.2c1.1,3.1-0.6,6.1-4.4,7.6
	c-3.1,1.2-6.4,2.4-9.9,3.7c0.8,2.4,1.5,4.5,2.4,7.1c4.5-1.6,8.7-3.1,12.9-4.6c4.5-1.6,7.6-0.5,8.9,2.9c1.2,3.4-0.5,6.2-5,7.9
	c-5.7,2.1-11.3,4.2-17,6.2c-4.8,1.7-7.3,0.5-9.1-4.3c-4-10.7-7.9-21.5-11.8-32.3c-1.7-4.6-0.5-7.2,4.1-8.9
	c5.9-2.2,11.8-4.3,17.8-6.4c3.9-1.4,7.1-0.2,8.2,2.9c1.3,3.4-0.3,6.3-4.4,7.9C7108.6,328.9,7104.3,330.5,7099.7,332.2L7099.7,332.2
	L7099.7,332.2z"/>
<path d="M7200.5,305.5c0-5.5,0.1-10.8,0-16c-0.2-4.7,1.5-7.5,5.1-7.8c3.9-0.3,6.2,2.2,6.5,7.1c0.6,11.6,1,23.2,1.6,34.8
	c0.1,3-0.6,5.6-3.6,6.7c-3.2,1.2-5.5-0.3-7.5-2.9c-7-9.4-14.2-18.7-21.2-28c-2.6-3.5-2.4-6.9,0.4-9c2.8-2,6.1-1.3,8.8,2.2
	C7193.9,296.7,7197.1,301.1,7200.5,305.5L7200.5,305.5L7200.5,305.5z"/>
<path d="M7145.8,342.4c4.4-1.6,8.6-3.1,12.9-4.6c4.5-1.6,7.6-0.5,8.8,3c1.2,3.5-0.5,6.1-5,7.8c-4.1,1.5-8.2,3.1-12.4,4.5
	c-6.5,2.1-12.7-0.6-15.1-6.9c-3.7-9.5-7.1-19.1-10.5-28.6c-1.3-3.6,0.1-6.5,3.3-7.7c3.1-1.2,6,0.1,7.4,3.8c3,8,5.9,16,8.8,24
	C7144.5,339.2,7145.1,340.6,7145.8,342.4L7145.8,342.4L7145.8,342.4z"/>
<path d="M7168.8,295.5c0.9,0.8,3.3,2.1,4,3.9c4.4,11.4,8.6,22.8,12.6,34.3c1.2,3.5-0.4,6.8-3.4,7.7c-3.1,1-6.1-0.5-7.4-4
	c-4.1-11.1-8.2-22.2-12.1-33.3C7160.9,299.6,7163.3,295.7,7168.8,295.5L7168.8,295.5L7168.8,295.5z"/>
<path class="st4" d="M7269.6,277.1c-0.8-2.2-1.4-4-2.1-6c3-1.1,5.7-2.1,8.9-3.3c0.7,2.1,1.4,3.9,2.1,6
	C7275.5,275,7272.8,275.9,7269.6,277.1z"/>
<path class="st4" d="M7359.2,264.8c-3.2,1.2-6,2.2-9,3.3c-2.9-8-5.8-15.8-8.7-23.8c2.9-1.1,5.7-2.1,9-3.4
	C7353.3,248.8,7356.1,256.5,7359.2,264.8z"/>
<path class="st4" d="M7062.2,345.9c6-2.4,9.9-0.9,12,4.7c1.8,5,3.6,9.9,5.4,14.9c0.1,0.2,0,0.5-0.1,1.1c-2.6,1-5.4,2-8.5,3.2
	C7067.9,361.7,7065.1,353.9,7062.2,345.9L7062.2,345.9L7062.2,345.9z"/>
<rect x="7016" y="110.6" class="st5" width="388.6" height="388.6"/>
<path d="M6066.9,396.7h-36.9c-20.9,0-41.8,0-62.6-0.1c-2.8,0-4.4,0.8-5.9,3.4c-9.7,16.4-23.6,26.9-42.8,29.8
	c-17.8,2.7-37.3-7.4-35.9-33.1h-26.6c-1.5,0-3.1,0-4.7,0c-6.7-0.1-9.5-4-7.4-10.3c5.5-16.1,11.1-32.2,16.7-48.2
	c0.5-1.3,0.8-2.6,1.4-4.5h-39.2c-1.3,0-2.5,0-3.8-0.1c-4.5-0.4-7.1-2.9-7.1-6.8c0-4,2.9-6.8,7.5-6.9c14.2-0.1,28.5-0.2,42.7,0.1
	c3.8,0.1,5.4-1.1,6.5-4.6c3.4-10.4,7.1-20.7,10.7-31.1c0.5-1.6,1-3.2,1.6-5.2h-32.1c-4.1,0-8.2,0.1-12.3,0c-4.9-0.1-7.9-2.8-7.8-7
	c0-4,2.8-6.7,7.6-6.7c15-0.1,29.9-0.2,44.9,0c3.5,0,5.2-0.8,6.3-4.3c1.9-6.5,3.8-13.1,6.8-19c3.7-7.1,8.5-13.7,12.9-20.4
	c-0.7,0-2.2-0.1-3.7-0.1c-13.7,0-27.4,0-41,0c-1.5,0-3.1-0.1-4.6-0.4c-3.4-0.9-5.3-3.3-5.2-6.8c0.1-3.2,2-5.6,5.3-6.3
	c1.5-0.3,3.1-0.4,4.6-0.4c87.9,0,175.8,0,263.7,0c3.5,0,7.1,0.2,10.5,1c11.8,2.7,18.6,10.4,21.1,22.2c4.1,19.6,8.2,39.1,12.1,58.7
	c0.6,3.2,1.9,5.5,5,7.1c5.3,2.7,10.3,5.9,15.4,8.8c14.1,8.1,19.4,20.2,14.5,35.7c-5.3,17-11.5,33.8-17.4,50.7
	c-1.3,3.6-4,5.1-7.9,5.1c-9.5-0.1-18.9,0.1-28.4-0.1c-2.8,0-4.4,0.8-5.9,3.4c-9.8,16.7-24,27.4-43.6,29.9
	c-21.1,2.6-36.1-11.7-35-30.7C6067.1,398.6,6067,397.9,6066.9,396.7L6066.9,396.7L6066.9,396.7z M5901.1,265.2h5.5
	c24.5,0,49.1,0,73.6,0c1.7,0,3.4,0,5.1,0.3c3.2,0.5,5,2.6,5.4,5.6c0.5,3.3-1,5.9-4.1,7.1c-1.6,0.6-3.6,0.7-5.4,0.7
	c-27.1,0-54.2,0.1-81.3,0c-3.1,0-4.4,0.9-5.3,3.8c-3.6,11.1-7.6,22.1-11.4,33.1c-0.4,1.2-0.7,2.4-1.2,4h5c10.7,0,21.4-0.1,32.2,0
	c4.6,0,7.4,2.9,7.4,7c0,3.9-2.6,6.4-7.1,6.7c-1.3,0.1-2.5,0.1-3.8,0.1c-11.6,0-23.1,0.1-34.7-0.1c-3.1,0-4.4,1-5.3,3.9
	c-4.6,13.6-9.4,27.1-14.1,40.7c-0.5,1.4-0.8,2.9-1.4,5c8.1,0,15.6-0.1,23.2,0.1c2.8,0.1,4.1-1,5.5-3.4c9.7-16.6,23.9-27,43.2-30
	c16.3-2.5,30.9,6.5,34.6,21.4c0.9,3.7,0.9,7.7,1.4,11.8c0.7,0,1.4,0.1,2.1,0.1c32.7,0,65.5,0,98.2,0.1c2.7,0,3.6-1.4,4.7-3.3
	c9.8-16.6,23.9-27.1,43.1-30.1c17.3-2.8,32.3,7.3,35.3,23.8c0.5,3,0.4,6.1,0.6,9.6c7.7,0,15.1,0.1,22.5-0.1c0.9,0,2.3-1.2,2.6-2.1
	c5.1-14.5,10.4-28.9,15-43.5c3.1-9.7,0.4-15.2-8.4-20.4c-5.8-3.4-11.6-6.9-17.6-10.1c-1.8-1-3.9-1.5-5.9-1.5
	c-12.5-0.1-25.1-0.5-37.7,0.1c-7.5,0.4-13.6-1.2-18.3-7.2c-2.2-2.8-5.1-3.4-8.6-3.3c-10,0.2-20,0.1-30,0.1c-7.5,0-10.3-3.9-7.9-11
	c4.2-12.2,8.5-24.4,12.7-36.7c2.3-6.6,3.3-7.3,10-7.3h66c-1.3-4.4-1.9-8.6-3.7-12.1c-3.2-6.1-9.2-6.7-15.4-6.7
	c-60.7,0-121.3,0.1-182,0c-9,0-16.7,3.1-23.9,8.2C5909.2,238,5905.3,251.2,5901.1,265.2L5901.1,265.2L5901.1,265.2z M6073.2,281.1
	h4.8c7.2,0,14.4,0.1,21.6,0c4.2-0.1,7.7,0.8,10.6,4.1c1.4,1.6,3,3.1,4.7,4.2c1.8,1.1,3.9,2.2,5.9,2.2c10,0.2,20,0.1,30,0.1h6
	c-2.7-13.1-5.4-25.5-8-38c-21.6,0-42.8,0-63.9,0.1c-0.9,0-2.4,0.6-2.6,1.3C6079.3,263.4,6076.4,271.9,6073.2,281.1L6073.2,281.1
	L6073.2,281.1z M6098,416.4c17.3-0.1,35.9-15.7,39.5-33.1c2.5-12.2-5-20.9-17.4-20.2c-16.6,0.9-34,15-38.5,31
	C6078,407.3,6084.7,416.5,6098,416.4L6098,416.4L6098,416.4z M5913.7,416.4c17.3,0,36.7-16.1,39.8-33c2.3-12.4-5.1-21-17.5-20.3
	c-17,1-34.4,15.3-38.6,31.9C5894.1,407.6,5900.8,416.4,5913.7,416.4L5913.7,416.4L5913.7,416.4z"/>
<path class="st4" d="M5901.1,265.2c4.2-13.9,8.1-27.2,20.3-35.8c7.2-5.1,14.9-8.2,23.9-8.2c60.7,0.1,121.3,0.1,182,0
	c6.1,0,12.2,0.6,15.4,6.7c1.8,3.5,2.4,7.6,3.7,12.1h-66c-6.8,0-7.7,0.7-10,7.3c-4.2,12.2-8.5,24.4-12.7,36.7c-2.4,7.1,0.4,11,7.9,11
	c10,0,20,0.1,30-0.1c3.5-0.1,6.4,0.5,8.6,3.3c4.7,5.9,10.8,7.5,18.3,7.2c12.5-0.6,25.1-0.2,37.7-0.1c2,0,4.2,0.6,5.9,1.5
	c6,3.2,11.8,6.7,17.6,10.1c8.8,5.2,11.5,10.7,8.4,20.4c-4.6,14.6-9.9,29-15,43.5c-0.3,0.9-1.7,2.1-2.6,2.1
	c-7.4,0.2-14.9,0.1-22.5,0.1c-0.2-3.5,0-6.6-0.6-9.6c-3-16.5-18-26.5-35.3-23.8c-19.2,3.1-33.4,13.5-43.1,30.1
	c-1.1,1.9-2,3.3-4.7,3.3c-32.7-0.1-65.5-0.1-98.2-0.1c-0.7,0-1.4-0.1-2.1-0.1c-0.5-4.1-0.5-8-1.4-11.8c-3.6-15-18.3-24-34.6-21.4
	c-19.2,3-33.5,13.4-43.2,30c-1.4,2.4-2.7,3.5-5.5,3.4c-7.6-0.2-15.1-0.1-23.2-0.1c0.6-2.1,0.9-3.5,1.4-5
	c4.7-13.5,9.5-27.1,14.1-40.7c1-2.8,2.2-3.9,5.3-3.9c11.6,0.2,23.1,0.1,34.7,0.1c1.3,0,2.5,0,3.8-0.1c4.5-0.3,7.1-2.8,7.1-6.7
	c0-4.1-2.8-6.9-7.4-7c-10.7-0.1-21.4,0-32.2,0h-5c0.5-1.6,0.8-2.8,1.2-4c3.8-11,7.8-22,11.4-33.1c1-2.9,2.3-3.9,5.3-3.8
	c27.1,0.1,54.2,0.1,81.3,0c1.8,0,3.7-0.1,5.4-0.7c3.1-1.2,4.6-3.8,4.1-7.1c-0.4-3.1-2.3-5.1-5.4-5.6c-1.7-0.3-3.4-0.3-5.1-0.3
	c-24.5,0-49.1,0-73.6,0L5901.1,265.2L5901.1,265.2z"/>
<path class="st4" d="M6073.2,281.1c3.2-9.2,6.1-17.7,9.2-26.1c0.2-0.7,1.7-1.3,2.6-1.3c21.1-0.1,42.3-0.1,63.9-0.1
	c2.6,12.5,5.2,24.9,8,38h-6c-10,0-20,0.1-30-0.1c-2,0-4.1-1.2-5.9-2.2c-1.8-1.1-3.3-2.6-4.7-4.2c-2.9-3.2-6.4-4.2-10.6-4.1
	c-7.2,0.2-14.4,0-21.6,0H6073.2L6073.2,281.1L6073.2,281.1z"/>
<path class="st4" d="M6098,416.4c-13.3,0.1-20.1-9.1-16.4-22.3c4.5-16,21.9-30,38.5-31c12.5-0.7,20,8,17.4,20.2
	C6134,400.7,6115.4,416.3,6098,416.4L6098,416.4L6098,416.4z"/>
<path class="st4" d="M5913.7,416.4c-12.8,0-19.6-8.8-16.4-21.4c4.2-16.6,21.6-30.9,38.6-31.9c12.4-0.7,19.9,7.9,17.5,20.3
	C5950.3,400.3,5930.9,416.4,5913.7,416.4z"/>
<path d="M204.3,454.6c0,5.5,0,9.9,0,14.4c0,4.9-1.8,7-5.7,7c-4,0-5.9-2.3-5.9-7.2c0.1-9,0.4-17.9,0.6-26.9c0-1.3,0-2.6,0-3.8
	c-3.8-0.6-7.4-1.1-10.9-1.6c-3.1-0.4-5.1-1.9-6.5-4.8c-9.1-18.4-18.5-36.6-27.2-55.1c-1.5-3.1-0.7-7.7,0.2-11.3
	c2.7-10.8,9-19.7,16.1-28c6-7,12.4-13.5,18.8-20.2c4.1-4.3,8.5-8.4,12.7-12.4c-3.7-7.6-3.6-8.2,2.1-13.9c6-6,12-12,17.6-17.5
	c-3.4-6.9-6.6-13.4-9.9-19.8c-0.3-0.6-1.2-1-1.9-1.3c-15.9-5.8-21.7-21.9-13-36.6c0.4-0.7,0.9-1.4,1.4-2.3c-4.1-4.3-5.2-9.4-5-15.2
	c0.2-7.8,0.2-15.5,0-23.3c-0.4-19.7,8.7-33.4,26.6-40.8c18.8-7.8,38.5-9.5,58.3-5.2c20,4.4,30.9,18.1,35.1,38.2
	c6.6,0,13.4,0.1,20.2,0c12.7-0.2,21.6,6.1,27.3,16.9c5.3,10,2.6,20-6.7,26.4c-8.7,6-18.7,7.5-28.9,8.2c-1.8,0.1-3.6,0-5.6,0
	c-1.1,21.5-3,42.7-18.3,59.9c4.9,4.9,9.6,10,14.8,14.5c1.7,1.5,4.6,1.7,7,2.3c2.4,0.6,4.9,1.1,7.8,1.8v-5.5c0-10.6,0-21.3,0-31.9
	c0-4.7,1.8-6.5,6.5-6.5c53,0,106.1,0,159.1,0c4.4,0,5.8,1.5,5.8,5.8c0,50.8,0,101.6,0,152.4c0,0.7,0,1.4,0,2.1c-0.2,4.2-2,6-6.3,6
	c-11.7,0-23.4,0-35.1,0h-4.2c-0.3,1.9-0.4,3.6-0.8,5.3c-2.3,10.5-10.1,14.8-19.6,16.8c-3,0.6-6.2,0.8-9.2,0.8
	c-14.5,0.1-28.9-0.2-43.4,0.1c-8.2,0.2-16.3,1.4-24.8,2.2c0,9.2,0,17.5,0,25.9c0,4-1.9,6.1-5.3,6.3c-3.8,0.2-6.1-2-6.2-6.2
	c-0.1-7.3,0-14.5,0-22.3c-2,0.6-3.7,1-5.3,1.6c-22.1,7.4-44.2,14.9-66.4,22c-6.6,2.1-13.7,3.3-20.6,4.1
	c-15.2,1.8-27.7-4.3-38.6-14.5C208.9,459.4,207,457.3,204.3,454.6L204.3,454.6L204.3,454.6z M336.9,264.6v131.5
	c1.3-0.3,2.5-0.5,3.6-0.9c11.2-3.5,22.7-5.3,34.5-4.7c8.5,0.4,17,0.4,25.4,0c10.9-0.6,18.9,5.4,20.2,16.7c0,0.2,0.3,0.3,0.3,0.3
	h64.7V264.6h-45.7v4.1c0,11.7,0,23.4,0,35.1c0,5.7-3.7,7.8-8.8,5.2c-5.5-2.8-11.1-5.5-16.6-8.4c-1.9-1-3.3-1.1-5.2,0
	c-5.7,3-11.5,5.8-17.2,8.7c-5.3,2.6-9.4,0.2-9.4-5.7c-0.1-10.8,0-21.5,0-32.2v-6.9L336.9,264.6L336.9,264.6L336.9,264.6z
	 M205.2,311.9c-10.9,11.4-21.7,22.3-32,33.7c-5.8,6.4-10.4,13.7-13,22c-0.6,1.9-1,4.5-0.2,6.1c8,16.9,16.3,33.7,24.6,50.5
	c0.5,1,1.8,2,2.8,2.2c16.8,3.2,31.6-4.7,38.1-20.2c0.9-2.1,0.8-3.6-0.4-5.6c-4.9-7.7-9.5-15.4-14.2-23.2c-2.6-4.4-0.9-8.6,3.6-9.5
	c3.4-0.7,5.3,1.4,6.8,4c6.9,12,13.9,23.9,20.9,35.9c6.1,10.5,16.4,14.4,27.8,10.5c16.8-5.6,33.6-11.3,50.5-16.8
	c2.8-0.9,3.6-2,3.6-4.9c-0.1-27.8-0.1-55.7-0.1-83.5v-3.9c-5-1.2-9.6-2.2-14.2-3.3c-3,6.1-5.7,12-8.6,17.7c-1.9,3.8-5,5.1-8.2,3.4
	c-1.2-0.6-2.2-1.8-3-2.9c-3.3-4.3-6.4-8.7-10-13.5c-2.5,6.5-4.9,12.2-7.1,18c-0.9,2.3-2.1,3.9-4.8,4.1c-3.5,0.3-5.3-1.6-6.5-4.5
	c-2.4-5.9-4.9-11.9-7.3-17.8c-0.5,0.3-0.7,0.4-0.9,0.6c-5,6.4-10,12.8-15.1,19.1c-3.4,4.2-6.1,4.4-10.3,1
	C220.7,324.8,213.3,318.6,205.2,311.9L205.2,311.9L205.2,311.9z M206.1,437.1c1.7,2.5,3.1,4.7,4.7,6.8c5.4,7.1,11.7,13.2,19.6,17.5
	c10.2,5.5,20.8,4.3,31,1.2c23.7-7.3,47.2-15,70.7-22.9c15.2-5.1,30.6-9.2,46.8-9.1c14.2,0.1,28.4,0.3,42.6,0
	c4.2-0.1,8.5-1.2,12.5-2.5c3.6-1.1,5.3-4.1,5.7-8.1c-1.2-0.1-2.2-0.1-3.3-0.1c-13.9-0.2-27.7-0.4-41.5-0.7c-4.4-0.1-6.6-2-6.5-5.8
	c0-3.8,2.2-5.6,6.6-5.7c4.5,0,9,0,13.5,0c-0.7-4.3-2.4-5.7-6.6-5.8c-12.8,0-25.6,0-38.3,0c-1.1,0-2.2,0.1-3.2,0.4
	c-10.5,2.8-21,5.4-31.3,8.7c-18.5,5.9-36.8,12.4-55.2,18.5c-14.2,4.6-28.1,0.3-37.5-11.3c-0.5-0.6-1.1-1.2-1.8-2
	C228.1,427.2,218.7,434,206.1,437.1L206.1,437.1L206.1,437.1z M299.4,193.9c-1.5,2.1-2.4,3.4-3.5,4.7c-3.1,3.8-6,7.8-9.5,11.1
	c-6.1,5.9-13.3,9.1-22.2,8.9c-19-0.3-37.9-0.2-56.9,0c-1.9,0-4.6,0.8-5.6,2.1c-3.1,4.3-3.4,9.4-1.5,14.3c1.6,4.3,5.4,6,9.6,6.3
	c4.1,0.3,6.1,2.5,7.2,6.2c2.1,7.2,5.5,13.7,10.4,19.4c19.7,22.9,56.9,18,68.4-9.6c3.5-8.5,5.6-17.2,6.2-26.3
	C302.9,218.9,302.3,206.8,299.4,193.9L299.4,193.9L299.4,193.9z M296.1,166.9c-0.9-2.8-1.6-5.2-2.5-7.5c-7.1-17.2-31.7-28-48.5-13.5
	c-8,6.9-10.9,16.2-11.6,26.4c-0.3,3.9-2.6,6.1-6.1,6c-3.4-0.1-5.4-2.3-5.3-6.2c0.1-10.7,3.3-20.4,9.8-29c0.6-0.8,1.1-1.6,2.1-3
	c-8.2,1.6-15.3,3.8-21.6,8c-7.1,4.7-12.1,11.1-12.6,19.8c-0.6,11.3-0.5,22.7-0.5,34c0,2.7,1.6,4.6,4.3,4.9c9.4,1,18.5,0.7,25.2-7.4
	c2.2-2.7,4.2-5.5,6.5-8.1c4-4.6,7.7-9.4,12.2-13.4c8.4-7.4,18.2-11.6,29.7-11C283.3,167.2,289.4,166.9,296.1,166.9L296.1,166.9
	L296.1,166.9z M298.1,178.4c-6.8,0-13.8,0.2-20.6-0.1c-7.3-0.3-13.5,2.1-19.4,6.1c-8.4,5.8-13.8,14.2-19.9,22.6c8,0,15.5-0.5,23,0.1
	c9.4,0.8,15.8-3.6,21.3-10.1C287.7,191,292.8,184.8,298.1,178.4L298.1,178.4L298.1,178.4z M428.3,295.2v-30.5h-34v30.5
	c4.8-2.4,9.1-4.8,13.7-6.7c1.9-0.8,4.7-0.8,6.6,0C419.2,290.3,423.6,292.8,428.3,295.2L428.3,295.2L428.3,295.2z M313.7,207.2
	c4-0.3,8.1-0.4,12-0.9c5.9-0.9,11.8-2.1,16.7-5.8c2.7-2.1,4.8-4.8,3.5-8.3c-2.5-6.3-6.4-11.5-13.5-13.2c-8.2-2-15.1,1.6-21.8,5.6
	c-0.5,0.3-0.9,1.6-0.8,2.3C311,193.5,312.3,200,313.7,207.2L313.7,207.2L313.7,207.2z M207.6,299.1c8.2,6.7,16.4,13.4,24.8,20.2
	c5.2-6.6,10.2-12.9,15.4-19.4c-8.6-5.6-16.8-11.1-24.7-16.3C217.8,288.9,212.9,293.9,207.6,299.1L207.6,299.1L207.6,299.1z
	 M295.5,310.7c1.8-3.4,3.4-6.3,4.8-9.3c0.3-0.6,0.4-1.8,0-2.1c-3.5-3.7-7.2-7.4-11.1-11.3c-1.1,3-2,5.4-2.7,7.7
	c-0.2,0.8-0.5,2-0.1,2.6C289.3,302.4,292.3,306.4,295.5,310.7L295.5,310.7L295.5,310.7z M268.2,311.5c2.7-7.2,5.1-13.8,7.7-20.6
	c-6,1-11.4,1.8-16.1,2.6C262.4,299.1,265.1,304.9,268.2,311.5L268.2,311.5L268.2,311.5z"/>
<path class="st4" d="M336.9,264.6h45.8v6.9c0,10.8,0,21.5,0,32.2c0,5.9,4.1,8.4,9.4,5.7c5.8-2.9,11.6-5.6,17.2-8.7
	c1.9-1,3.4-1,5.2,0c5.5,2.9,11.1,5.5,16.6,8.4c5.1,2.6,8.8,0.5,8.8-5.2c0-11.7,0-23.4,0-35.1v-4.1h45.7v142.9H421
	c0,0-0.3-0.1-0.3-0.3c-1.3-11.3-9.3-17.2-20.2-16.7c-8.5,0.4-17,0.4-25.4,0c-11.8-0.6-23.3,1.2-34.5,4.7c-1.1,0.4-2.3,0.6-3.6,0.9
	L336.9,264.6L336.9,264.6L336.9,264.6z M371.2,379.1c3.7,0,7.4,0,11.1,0c4-0.1,6.1-2.1,6.1-5.8c0-3.5-2.1-5.6-5.9-5.6
	c-7.5-0.1-15-0.1-22.5,0c-3.8,0-5.9,2.1-5.9,5.6c0,3.7,2.1,5.7,6.1,5.8C363.8,379.2,367.5,379.1,371.2,379.1L371.2,379.1z
	 M365.1,361.9c2.1,0,4.3,0.1,6.4,0c3.4-0.2,5.4-2.4,5.4-5.8c0-3.4-2.1-5.5-5.5-5.6c-3.9-0.1-7.9-0.1-11.8,0
	c-3.5,0.1-5.5,2.2-5.6,5.6c0,3.5,2,5.7,5.7,5.8C361.5,362,363.3,361.9,365.1,361.9L365.1,361.9L365.1,361.9z"/>
<path class="st4" d="M205.2,311.9c8,6.7,15.5,12.9,22.9,19.1c4.1,3.5,6.9,3.2,10.3-1c5.1-6.4,10-12.8,15.1-19.1
	c0.1-0.2,0.4-0.3,0.9-0.6c2.5,6,4.9,11.9,7.3,17.8c1.2,2.9,3,4.8,6.5,4.5c2.6-0.2,3.9-1.9,4.8-4.1c2.2-5.8,4.5-11.5,7.1-18
	c3.5,4.8,6.7,9.2,10,13.5c0.8,1.1,1.8,2.3,3,2.9c3.2,1.7,6.3,0.4,8.2-3.4c2.9-5.8,5.6-11.6,8.6-17.7c4.6,1.1,9.2,2.2,14.2,3.3v3.9
	c0,27.8,0,55.7,0.1,83.5c0,2.9-0.8,4-3.6,4.9c-16.9,5.5-33.7,11.2-50.5,16.8c-11.4,3.8-21.7,0-27.8-10.5c-7-12-13.9-23.9-20.9-35.9
	c-1.5-2.6-3.4-4.8-6.8-4c-4.5,0.9-6.2,5.1-3.6,9.5c4.6,7.8,9.3,15.6,14.2,23.2c1.2,2,1.3,3.6,0.4,5.6c-6.5,15.4-21.3,23.4-38.1,20.2
	c-1.1-0.2-2.3-1.2-2.8-2.2c-8.3-16.8-16.6-33.5-24.6-50.5c-0.8-1.6-0.4-4.2,0.2-6.1c2.6-8.4,7.3-15.7,13-22
	C183.5,334.2,194.4,323.3,205.2,311.9L205.2,311.9L205.2,311.9z"/>
<path class="st4" d="M206.1,437.1c12.5-3.1,21.9-10,28.4-20.9c0.7,0.8,1.3,1.4,1.8,2c9.5,11.6,23.4,16,37.5,11.3
	c18.5-6,36.7-12.5,55.2-18.5c10.3-3.3,20.9-5.8,31.3-8.7c1-0.3,2.1-0.4,3.2-0.4c12.8,0,25.6,0,38.3,0c4.2,0,5.9,1.5,6.6,5.8
	c-4.5,0-9,0-13.5,0c-4.4,0-6.6,1.9-6.6,5.7c0,3.8,2.1,5.7,6.5,5.8c13.9,0.2,27.7,0.4,41.5,0.7c1,0,2.1,0.1,3.3,0.1
	c-0.4,3.9-2.2,7-5.7,8.1c-4,1.3-8.3,2.4-12.5,2.5c-14.2,0.3-28.4,0-42.6,0c-16.2-0.1-31.5,4-46.8,9.1c-23.5,7.9-47,15.6-70.7,22.9
	c-10.2,3.1-20.8,4.3-31-1.2c-7.9-4.3-14.2-10.4-19.6-17.5C209.3,441.9,207.9,439.7,206.1,437.1L206.1,437.1L206.1,437.1z"/>
<path class="st4" d="M299.4,193.9c2.9,12.9,3.6,25,2.7,37.2c-0.6,9.1-2.7,17.8-6.2,26.3c-11.5,27.6-48.7,32.5-68.4,9.6
	c-4.9-5.7-8.2-12.2-10.4-19.4c-1.1-3.7-3.1-5.9-7.2-6.2c-4.2-0.3-8-2-9.6-6.3c-1.9-4.9-1.6-10,1.5-14.3c1-1.4,3.7-2.1,5.6-2.1
	c19-0.1,37.9-0.3,56.9,0c8.9,0.1,16.1-3,22.2-8.9c3.5-3.4,6.4-7.4,9.5-11.1C297,197.3,297.9,195.9,299.4,193.9L299.4,193.9
	L299.4,193.9z"/>
<path class="st4" d="M296.1,166.9c-6.8,0-12.9,0.3-18.9-0.1c-11.6-0.6-21.3,3.6-29.7,11c-4.5,4-8.3,8.9-12.2,13.4
	c-2.3,2.6-4.3,5.4-6.5,8.1c-6.7,8.2-15.8,8.4-25.2,7.4c-2.7-0.3-4.3-2.3-4.3-4.9c0-11.3-0.1-22.7,0.5-34c0.5-8.7,5.5-15.1,12.6-19.8
	c6.4-4.2,13.5-6.4,21.6-8c-1,1.4-1.5,2.2-2.1,3c-6.5,8.6-9.7,18.3-9.8,29c0,3.9,1.9,6.1,5.3,6.2c3.5,0.1,5.8-2.1,6.1-6
	c0.7-10.2,3.5-19.5,11.6-26.4c16.8-14.5,41.4-3.7,48.5,13.5C294.6,161.7,295.2,164.1,296.1,166.9L296.1,166.9L296.1,166.9z"/>
<path class="st4" d="M298.1,178.4c-5.3,6.4-10.5,12.6-15.7,18.8c-5.6,6.5-12,10.9-21.3,10.1c-7.4-0.7-15-0.1-23-0.1
	c6.2-8.4,11.5-16.8,20-22.6c5.9-4,12.1-6.4,19.4-6.1C284.4,178.6,291.3,178.4,298.1,178.4L298.1,178.4L298.1,178.4z"/>
<path class="st4" d="M428.3,295.2c-4.7-2.4-9.1-4.9-13.7-6.7c-1.9-0.8-4.7-0.7-6.6,0c-4.6,1.8-9,4.3-13.7,6.7v-30.5h34L428.3,295.2
	L428.3,295.2L428.3,295.2z"/>
<path class="st4" d="M313.7,207.2c-1.4-7.1-2.7-13.7-3.9-20.2c-0.1-0.7,0.2-2,0.8-2.3c6.7-4.1,13.6-7.6,21.8-5.6
	c7.1,1.7,11,6.9,13.5,13.2c1.4,3.5-0.7,6.2-3.5,8.3c-4.9,3.7-10.8,4.9-16.7,5.8C321.8,206.9,317.7,206.9,313.7,207.2L313.7,207.2
	L313.7,207.2z"/>
<path class="st4" d="M207.6,299.1c5.2-5.2,10.2-10.2,15.4-15.4c7.9,5.2,16.1,10.7,24.7,16.3c-5.1,6.5-10.1,12.8-15.4,19.4
	C224.1,312.5,215.9,305.9,207.6,299.1L207.6,299.1L207.6,299.1z"/>
<path class="st4" d="M295.5,310.7c-3.2-4.3-6.2-8.3-9-12.4c-0.4-0.6-0.2-1.8,0.1-2.6c0.7-2.4,1.6-4.7,2.7-7.7
	c3.9,3.9,7.6,7.5,11.1,11.3c0.4,0.4,0.2,1.5,0,2.1C298.8,304.4,297.3,307.3,295.5,310.7L295.5,310.7L295.5,310.7z"/>
<path class="st4" d="M268.2,311.5c-3-6.6-5.7-12.4-8.4-18.1c4.6-0.8,10.1-1.6,16.1-2.6C273.3,297.7,270.9,304.3,268.2,311.5
	L268.2,311.5L268.2,311.5z"/>
<path d="M371.2,379.1c-3.7,0-7.4,0-11.1,0c-4-0.1-6.1-2.1-6.1-5.8c0-3.5,2.1-5.6,5.9-5.6c7.5-0.1,15-0.1,22.5,0
	c3.8,0,5.9,2.1,5.9,5.6c0,3.7-2.1,5.7-6.1,5.8C378.6,379.2,374.9,379.1,371.2,379.1L371.2,379.1z"/>
<path d="M365.1,361.9c-1.8,0-3.6,0.1-5.4,0c-3.7-0.1-5.8-2.3-5.7-5.8c0-3.4,2.1-5.5,5.6-5.6c3.9-0.1,7.9-0.1,11.8,0
	c3.5,0.1,5.5,2.2,5.5,5.6c0,3.4-2,5.6-5.4,5.8C369.3,362,367.2,361.9,365.1,361.9L365.1,361.9L365.1,361.9z"/>
<path d="M1288.4,289.6c8.5-3.8,17.3-7.2,25.4-11.7c6.4-3.5,11.8-3.4,18.4-0.6c13,5.5,26.3,10.2,39.6,15.1c1.3,0.5,3.1,0.6,4.3,0
	c15.3-7.1,30.6-14.4,45.9-21.6c0.4-0.2,0.7-0.5,1.4-0.9c-25.6-25.9-51.2-51.8-77.2-78.2c5.1-0.3,9.4-0.6,13.8-0.8
	c13.1-0.5,26.3-1.1,39.4-1.5c1.8-0.1,3.8,0.4,5.4,1.2c29.5,14.7,58.9,29.5,88.3,44.3c2.1,1.1,3.7,1.1,5.8,0.1
	c18.9-8.9,37.9-17.7,56.9-26.3c12.6-5.6,25.8-8.3,39.7-7.2c10.1,0.8,19.6,3.7,27.5,10.1c3.4,2.7,5.5,7,8.2,10.6v6.7
	c-3.6,10.6-12.2,16.2-21.5,20.7c-26.1,12.4-52.4,24.6-78.6,36.8c-39.4,18.4-78.8,36.7-118.3,55.1c-14.8,6.9-30.4,10.8-46.6,12.2
	c-10.2,0.9-20.4,1-30.6,0.6c-4.5-0.2-9.2-1.9-13.2-4c-8-4.2-9.5-11.9-4.5-19.4c0.5-0.7,1-1.5,1.6-2.4c-10.4-12.7-20.7-25.4-31-38.1
	L1288.4,289.6L1288.4,289.6L1288.4,289.6z M1329.7,338.1c1.2,0.5,1.8,0.8,2.4,1c0.7,0.2,1.5,0.5,2.2,0.6c9.9,1.9,19.8,1.2,29.6,0
	c15.2-1.8,30-5.3,43.9-11.8c38.7-18.1,77.5-36,116.2-54.1c26.4-12.3,52.9-24.6,79.2-37.1c4.2-2,8-4.9,11.5-7.9
	c3-2.6,2.9-4.4-0.6-6.2c-5.1-2.6-10.4-5.2-15.9-6.4c-12.3-2.6-24.3,0-35.5,4.9c-21.4,9.5-42.7,19.6-63.9,29.4
	c-2.2,1-3.9,1.1-6.2-0.1c-30.3-15.3-60.6-30.5-91-45.7c-1-0.5-2-1.3-3-1.3c-6.4,0.1-12.8,0.5-20,0.8c23.3,23.6,46,46.6,68.9,69.8
	c-0.8,0.5-1.2,0.7-1.5,0.9c-23.1,11-46.2,22-69.4,32.8c-1.2,0.5-3,0.4-4.3-0.1c-15.3-5.7-30.6-11.6-45.9-17.4
	c-1.2-0.5-2.8-1.1-3.8-0.7c-4,1.6-7.8,3.5-11.8,5.4c9.5,11.8,18.7,23.2,27.9,34.6C1335.7,332.6,1332.9,335.2,1329.7,338.1
	L1329.7,338.1L1329.7,338.1z"/>
<path d="M1624.1,430.8v13.7h-324.3v-13.7H1624.1z"/>
<path class="st4" d="M1329.7,338.1c3.2-2.9,5.9-5.5,9-8.4c-9.2-11.4-18.4-22.8-27.9-34.6c4.1-1.9,7.9-3.9,11.8-5.4
	c1-0.4,2.6,0.2,3.8,0.7c15.3,5.8,30.6,11.6,45.9,17.4c1.3,0.5,3.1,0.6,4.3,0.1c23.2-10.9,46.3-21.9,69.4-32.8
	c0.4-0.2,0.7-0.4,1.5-0.9c-22.9-23.2-45.6-46.2-68.9-69.8c7.2-0.3,13.6-0.7,20-0.8c1,0,2,0.8,3,1.3c30.3,15.2,60.7,30.4,91,45.7
	c2.2,1.1,4,1.1,6.2,0.1c21.3-9.9,42.5-19.9,63.9-29.4c11.2-5,23.2-7.6,35.5-4.9c5.5,1.2,10.8,3.8,15.9,6.4c3.4,1.8,3.6,3.6,0.6,6.2
	c-3.5,3-7.3,5.9-11.5,7.9c-26.3,12.5-52.8,24.8-79.2,37.1c-38.7,18-77.5,36-116.2,54.1c-14,6.5-28.7,10-43.9,11.8
	c-9.9,1.2-19.8,1.9-29.6,0c-0.8-0.1-1.5-0.4-2.2-0.6C1331.5,338.9,1330.9,338.6,1329.7,338.1L1329.7,338.1L1329.7,338.1z"/>
<path d="M4953.9,310.1c4.2,0,8.1-0.1,12.1,0c3,0.1,5.2,2.9,5.2,5.8c0,2.9-2.3,5.4-5.3,5.7c-1.3,0.1-2.6,0.1-4,0.1c-2.6,0-5.2,0-8,0
	v69.8h4.9c7.1,0,12.2,4.6,12.4,11.7c0.2,11.6,0.2,23.3,0,35c-0.1,6.7-4.8,11.2-11.5,11.7c-0.9,0.1-1.7,0-2.6,0c-80,0-160,0-239.9,0
	c-3.6,0-7-0.5-9.8-2.9c-2.8-2.4-4.1-5.6-4.2-9.3c0-11.4-0.1-22.7,0-34.1c0.1-7.2,5.1-12,12.3-12.1c1.6,0,3.2,0,5,0v-69.9
	c-3.9,0-7.9,0.2-11.8,0c-4.2-0.2-6.7-4.5-4.8-8.2c1.1-2.2,3-3.3,5.5-3.3h11.1v-69.8h-4.9c-7.1,0-12.3-4.6-12.4-11.7
	c-0.2-11.6-0.2-23.3,0-35c0.1-6.7,4.9-11.3,11.5-11.7c0.9-0.1,1.7,0,2.6,0c80,0,160,0,239.9,0c3.6,0,7,0.5,9.8,2.9
	c2.9,2.5,4.2,5.8,4.2,9.6c0,11.2,0.1,22.4,0,33.5c-0.1,7.6-5,12.4-12.6,12.4h-4.7L4953.9,310.1L4953.9,310.1L4953.9,310.1z
	 M4959.3,193.7H4715v34.4h244.2V193.7z M4715,403.4v34.5h244.1v-34.5H4715z M4772.7,309.9v-69.5h-40.1v69.5H4772.7z M4941.6,309.9
	v-69.5h-40.1v69.5H4941.6z M4732.6,321.8v69.5h40.1v-69.5H4732.6z M4901.5,321.8v69.5h40.1v-69.5H4901.5z M4813.9,344.6h46.3V287
	h-46.3V344.6z M4802.1,309.9v-3.4c0-8,0-16.1,0-24.2c0-5.1,2.2-7.3,7.3-7.3c6.2,0,12.5,0,18.8,0c1,0,2-0.1,2.9-0.1v-34.4h-46v69.5
	L4802.1,309.9L4802.1,309.9z M4843.2,240.3V275h21.2c5.6,0,7.8,2.1,7.8,7.6c0,8,0,16.1,0,24.2c0,1,0.1,2,0.2,3h16.9v-69.5
	L4843.2,240.3L4843.2,240.3z M4785,321.8v69.5h46.1v-34.6h-20.9c-6.1,0-8.1-2-8.1-8.2c0-7.9,0-15.7,0-23.6c0-1-0.1-2-0.2-3.1
	L4785,321.8L4785,321.8L4785,321.8z M4889.3,391.4v-69.5h-17.1v3.3c0,8.1,0,16.3,0,24.4c0,4.9-2.3,7.1-7.2,7.1c-4,0-8,0-11.9,0h-9.9
	v34.7L4889.3,391.4L4889.3,391.4z"/>
<path class="st4" d="M4959.3,193.7v34.4H4715v-34.4H4959.3z M4743.9,211.1c0-4.8-3.8-8.8-8.5-8.9c-4.7-0.1-9,4-9,8.8
	c0,4.7,3.9,8.7,8.6,8.7C4740.1,219.8,4743.9,216,4743.9,211.1L4743.9,211.1L4743.9,211.1z M4816.7,219.7c4.9,0,8.9-3.9,8.9-8.8
	c0-4.6-4.1-8.7-8.7-8.8c-4.8-0.1-8.8,4-8.8,8.9C4808.1,215.9,4811.8,219.7,4816.7,219.7L4816.7,219.7L4816.7,219.7z M4898.4,219.7
	c4.8-0.1,8.6-3.9,8.6-8.7s-4.2-8.9-8.9-8.8c-4.7,0.1-8.6,4.1-8.6,8.8C4889.5,215.9,4893.4,219.8,4898.4,219.7L4898.4,219.7
	L4898.4,219.7z M4776,219.7c4.8,0,8.7-3.9,8.7-8.6c0-4.8-4.1-8.9-8.9-8.9c-4.7,0.1-8.7,4-8.7,8.8
	C4767.2,215.9,4771.1,219.7,4776,219.7L4776,219.7L4776,219.7z M4866.2,210.9c0-4.7-4-8.7-8.6-8.8c-4.8,0-8.9,4.1-8.9,8.9
	c0,4.7,4,8.6,8.7,8.6C4862.4,219.8,4866.2,216,4866.2,210.9L4866.2,210.9L4866.2,210.9z M4938.9,219.7c4.9,0,8.9-3.9,8.9-8.8
	c0-4.6-4.1-8.7-8.7-8.8c-4.7-0.1-8.7,3.8-8.8,8.6C4930.2,215.8,4934,219.7,4938.9,219.7L4938.9,219.7L4938.9,219.7z"/>
<path class="st4" d="M4715,403.4h244.1v34.5H4715V403.4z M4776,411.9c-4.8,0-8.7,3.8-8.8,8.5c-0.1,4.8,4,9,8.7,9s8.9-4.1,8.8-8.9
	C4784.7,415.8,4780.8,412,4776,411.9L4776,411.9L4776,411.9z M4735.2,411.9c-4.8,0-8.7,3.8-8.8,8.6c-0.1,4.7,4.1,9,8.8,9
	s8.8-4,8.7-9C4743.9,415.7,4740.1,411.9,4735.2,411.9L4735.2,411.9L4735.2,411.9z M4816.7,411.9c-4.9,0-8.6,3.8-8.6,8.6
	c0,4.9,4,9,8.8,8.9c4.6,0,8.7-4.1,8.8-8.7C4825.7,416,4821.6,411.9,4816.7,411.9L4816.7,411.9L4816.7,411.9z M4857.6,411.9
	c-4.9,0-8.9,4-8.9,8.8c0.1,4.6,4.1,8.7,8.7,8.8c4.8,0.1,8.8-4,8.8-8.9C4866.2,415.7,4862.4,412,4857.6,411.9L4857.6,411.9
	L4857.6,411.9z M4907,420.6c0-4.9-4-8.7-9-8.6c-4.8,0.1-8.6,4-8.5,8.8c0,4.7,4,8.7,8.7,8.7C4903,429.5,4907.1,425.4,4907,420.6
	L4907,420.6L4907,420.6z M4930.3,420.6c0,4.9,4,8.9,8.8,8.9c4.7-0.1,8.7-4.1,8.7-8.8c0.1-4.8-4-8.8-8.9-8.8
	C4934.1,412,4930.3,415.7,4930.3,420.6L4930.3,420.6L4930.3,420.6z"/>
<path class="st4" d="M4772.7,309.9h-40.1v-69.5h40.1V309.9z"/>
<path class="st4" d="M4941.6,309.9h-40.1v-69.5h40.1V309.9z"/>
<path class="st4" d="M4732.6,321.8h40.1v69.5h-40.1V321.8z"/>
<path class="st4" d="M4901.5,321.8h40.1v69.5h-40.1V321.8z"/>
<path class="st4" d="M4813.9,344.6V287h46.3v57.7H4813.9z M4845.9,315.9c0-4.7-3.8-8.7-8.6-8.8c-4.9-0.1-8.9,3.8-8.9,8.7
	c0,4.8,3.8,8.7,8.5,8.8C4841.8,324.7,4845.8,320.8,4845.9,315.9L4845.9,315.9L4845.9,315.9z"/>
<path class="st4" d="M4802.1,309.9H4785v-69.5h46v34.4c-0.9,0-1.9,0.1-2.9,0.1c-6.2,0-12.5,0-18.8,0c-5,0-7.2,2.2-7.3,7.3
	c0,8,0,16.1,0,24.2L4802.1,309.9L4802.1,309.9L4802.1,309.9z"/>
<path class="st4" d="M4843.2,240.3h46.1v69.5h-16.9c-0.1-1-0.2-2-0.2-3c0-8,0-16.1,0-24.2c0-5.6-2.1-7.6-7.8-7.6h-21.2L4843.2,240.3
	L4843.2,240.3L4843.2,240.3z"/>
<path class="st4" d="M4785,321.8h16.9c0.1,1.1,0.2,2.1,0.2,3.1c0,7.9,0,15.7,0,23.6c0,6.2,2,8.2,8.1,8.2h20.9v34.6H4785L4785,321.8
	L4785,321.8L4785,321.8z"/>
<path class="st4" d="M4889.3,391.4h-46.1v-34.7h9.9c4,0,8,0,11.9,0c4.9,0,7.1-2.2,7.2-7.1c0.1-8.1,0-16.3,0-24.4v-3.3h17.1
	L4889.3,391.4L4889.3,391.4L4889.3,391.4z"/>
<path d="M4743.9,211.1c0,5-3.9,8.7-8.9,8.7c-4.7-0.1-8.7-4-8.6-8.7c0-4.8,4.2-8.9,9-8.8C4740.1,202.3,4743.9,206.3,4743.9,211.1
	L4743.9,211.1L4743.9,211.1z"/>
<path d="M4816.7,219.7c-4.9,0-8.6-3.8-8.6-8.6c0-4.9,3.9-8.9,8.8-8.9c4.6,0.1,8.7,4.2,8.7,8.8
	C4825.6,215.8,4821.6,219.8,4816.7,219.7L4816.7,219.7L4816.7,219.7z"/>
<path d="M4898.4,219.7c-5,0.1-8.9-3.8-8.9-8.7s3.9-8.7,8.6-8.8c4.7-0.1,8.9,4,8.9,8.8S4903.2,219.7,4898.4,219.7L4898.4,219.7
	L4898.4,219.7z"/>
<path d="M4776,219.7c-5,0-8.9-3.9-8.8-8.8c0-4.7,4-8.7,8.7-8.8c4.8-0.1,8.9,4.1,8.9,8.9C4784.7,215.9,4780.8,219.7,4776,219.7
	L4776,219.7L4776,219.7z"/>
<path d="M4866.2,210.9c0,5-3.8,8.8-8.8,8.8c-4.8,0-8.7-3.9-8.7-8.6c0-4.7,4.1-8.9,8.9-8.9C4862.2,202.2,4866.2,206.2,4866.2,210.9
	L4866.2,210.9L4866.2,210.9z"/>
<path d="M4938.9,219.7c-5,0-8.7-3.9-8.6-8.9c0.1-4.8,4-8.6,8.8-8.6c4.6,0,8.7,4.2,8.7,8.8C4947.9,215.8,4943.8,219.7,4938.9,219.7
	L4938.9,219.7L4938.9,219.7z"/>
<path d="M4776,411.9c4.8,0,8.7,3.9,8.8,8.6c0.1,4.8-4,8.9-8.8,8.9c-4.8,0-8.8-4.1-8.7-9C4767.3,415.7,4771.2,411.9,4776,411.9
	L4776,411.9L4776,411.9z"/>
<path d="M4735.2,411.9c4.9,0,8.7,3.7,8.7,8.6c0,4.9-3.9,9-8.7,9s-8.9-4.3-8.8-9C4726.5,415.8,4730.4,411.9,4735.2,411.9
	L4735.2,411.9L4735.2,411.9z"/>
<path d="M4816.7,411.9c4.9,0,9,4,8.9,8.8c-0.1,4.7-4.1,8.7-8.8,8.7c-4.8,0.1-8.8-4-8.8-8.9C4808.1,415.7,4811.8,412,4816.7,411.9
	L4816.7,411.9L4816.7,411.9z"/>
<path d="M4857.6,411.9c4.8,0,8.6,3.8,8.6,8.6c0,4.9-4,8.9-8.8,8.9c-4.6,0-8.7-4.1-8.7-8.8C4848.6,415.9,4852.6,411.9,4857.6,411.9
	L4857.6,411.9L4857.6,411.9z"/>
<path d="M4907,420.6c0,4.8-4,8.9-8.8,8.9c-4.7,0-8.7-4-8.7-8.7c0-4.8,3.8-8.7,8.5-8.8C4903,411.9,4907,415.7,4907,420.6L4907,420.6
	L4907,420.6z"/>
<path d="M4930.3,420.6c0-4.9,3.7-8.6,8.6-8.6c4.9,0,9,4,8.9,8.8c-0.1,4.7-4.1,8.7-8.7,8.8C4934.3,429.5,4930.3,425.5,4930.3,420.6
	L4930.3,420.6L4930.3,420.6z"/>
<path d="M4845.9,315.9c0,4.9-4,8.8-8.9,8.7c-4.8-0.1-8.6-4-8.5-8.8c0-4.9,4-8.8,8.9-8.7C4842,307.2,4845.9,311.1,4845.9,315.9
	L4845.9,315.9L4845.9,315.9z"/>
<path d="M3936.4,418.9c-2.3,3.3-5.4,4.2-9.3,4.2c-110.4-0.1-220.8-0.1-331.1-0.1c-0.9,0-1.8,0-2.7,0c-4.1-0.2-6.8-2.9-6.7-6.6
	c0.1-3.6,2.8-6.1,6.7-6.3c1,0,2.1,0,3.1,0c110.2,0,220.3,0,330.5-0.1c4,0,7.3,0.7,9.7,4.2L3936.4,418.9L3936.4,418.9L3936.4,418.9z"
	/>
<path d="M3703.9,271.3c-4.6-17-9.1-33.6-13.7-50.1c-0.8-3-1.2-5.8,1.2-8.3c2.4-2.4,5.3-2.1,8.3-1.2c11.2,3.2,22.5,6.4,33.8,9.5
	c3.1,0.8,5.5,2.4,7.5,4.9c16.4,20.1,32.9,40.2,49.4,60.2c1.1,1.3,3,2.4,4.7,2.7c19.8,3.5,39.7,6.4,59.4,10.5
	c25.3,5.3,40.9,21.1,46.9,46.3c2.6,10.7,2.9,21.6,1,32.5c-1.1,6.3-4.3,8.3-10.4,6.3c-15-4.8-30.1-9.6-45.1-14.4
	c-77.8-25-155.7-50-233.5-75c-5.5-1.8-6.5-3.2-7-9c-2-21.1-4-42.1-6-63.2c-0.8-7.8,2.5-10.8,10.1-9.4c15.6,3,27.6,11.8,37,23.9
	c6.3,8.1,11.1,17.4,16.6,26.1c0.6,1,1.8,2.1,2.9,2.3C3679.1,267.8,3691.2,269.5,3703.9,271.3L3703.9,271.3L3703.9,271.3z
	 M3705.5,227.3c0.3,1.3,0.4,2,0.6,2.6c2.1,7.9,4.3,15.8,6.4,23.7c2.1,7.6,4.1,15.1,6.2,22.7c1.7,6.5-1.6,10.3-8.2,9.4
	c-16.1-2.3-32.2-4.8-48.3-6.8c-4.8-0.6-7.5-2.7-9.3-7.1c-5.7-13.2-13.2-25.2-24.3-34.6c-4.2-3.6-9.3-6.3-14.7-9.9
	c0.1,2.1,0.1,2.9,0.2,3.7c1.5,16.3,3.1,32.6,4.4,48.9c0.2,2.5,1.1,3.5,3.4,4.2c88.2,28.4,176.4,56.9,264.6,85.3
	c1.1,0.4,2.3,0.6,4.3,1.1c-0.5-6.5-0.6-12.4-1.5-18.2c-3.4-22.2-16.9-35.5-36.2-39.4c-20.1-4.1-40.5-7.1-60.8-10.5
	c-4.6-0.8-8-2.6-11.1-6.4c-16.1-20-32.5-39.9-48.9-59.8c-0.8-0.9-1.7-2-2.8-2.3C3721.6,231.7,3713.8,229.6,3705.5,227.3
	L3705.5,227.3L3705.5,227.3z"/>
<path class="st4" d="M3705.5,227.3c8.3,2.3,16.1,4.5,23.9,6.8c1.1,0.3,2,1.4,2.8,2.3c16.3,19.9,32.7,39.7,48.9,59.8
	c3,3.8,6.4,5.6,11.1,6.4c20.3,3.3,40.6,6.4,60.8,10.5c19.4,3.9,32.8,17.2,36.2,39.4c0.9,5.8,1,11.7,1.5,18.2c-2-0.5-3.2-0.8-4.3-1.1
	c-88.2-28.4-176.4-56.9-264.6-85.3c-2.2-0.7-3.1-1.7-3.4-4.2c-1.3-16.3-2.9-32.6-4.4-48.9c-0.1-0.8-0.1-1.6-0.2-3.7
	c5.4,3.6,10.5,6.3,14.7,9.9c11.1,9.4,18.6,21.4,24.3,34.6c1.9,4.3,4.5,6.5,9.3,7.1c16.1,2,32.2,4.5,48.3,6.8
	c6.6,0.9,9.9-2.9,8.2-9.4c-2-7.6-4.1-15.1-6.2-22.7c-2.1-7.9-4.3-15.8-6.4-23.7C3705.9,229.3,3705.8,228.6,3705.5,227.3
	L3705.5,227.3L3705.5,227.3z"/>
<line class="st6" x1="1806.3" y1="336.6" x2="2266.8" y2="336.6"/>
<line class="st6" x1="645.1" y1="336.6" x2="1105.6" y2="336.6"/>
<line class="st7" x1="2917.4" y1="336.6" x2="3417.1" y2="336.6"/>
<line class="st7" x1="4036.8" y1="336.6" x2="4536.6" y2="336.6"/>
<line class="st7" x1="5144" y1="336.6" x2="5643.8" y2="336.6"/>
<line class="st7" x1="6353" y1="336.6" x2="6852.8" y2="336.6"/>
<path class="st4" d="M7031.9,318.6v-16.1l8.4-7.5l8.7-24.6l-4.7-31.2l5.1-19.8h9.6l20.6-13.7l7.3-16.5l9.8-12.2l11.8-16.9l15.5-7.3
	l22,2.8l16.1-6.8l11.9-12.4l14.4-5.1h19.1l11.8,3.4l6.2,6.8l13.3,3.9l15.5-2.8l13.1-1.1l5.5-1.1c0,0,18.7,2.2,25.3,14.1
	s10.5,18.6,10.5,18.6l9,9l17.9,9l14.6,8.2l-0.9,7L7031.9,318.6L7031.9,318.6L7031.9,318.6z"/>
<path d="M7404.6,283.3c-2.1,4.1-4.8,7.6-9.4,9.2c-0.7,0.2-1.3,2-1.4,3c-0.9,9.4-4.4,17.5-10.6,24.5c-8,9.1-9.5,19.4-5.2,30.7
	c6.2,16.5,2.5,33.5-10.4,44.9c-3.9,3.4-8.7,6.2-13.5,8c-12.5,4.5-19.5,12.9-21.5,26.1c-3.2,21.6-25,36.8-46.5,32.5
	c-13-2.6-23.4,1.1-31.9,11.4c-14.4,17.6-39.4,20-56.7,5.2c-10.2-8.7-21-10.6-33.7-5.9c-21.3,7.9-44-2.9-51.5-24.3
	c-4.4-12.6-12.8-19.7-26-21.6c-8.5-1.2-15.8-5.2-21.7-11.4c-1.5-1.5-2.6-2-4.8-1.4c-7.3,2.3-13.8-0.9-16.4-8.1
	c-8.7-23.5-17.2-47-25.7-70.6c-2.6-7.2,0.3-13.7,7.3-16.8c1.9-0.8,2.6-1.8,2.8-3.8c0.7-9.5,4.6-17.6,10.8-24.8
	c7.6-8.8,9.1-18.9,5.2-29.7c-8.7-23.6,1.5-45.6,25.1-54.2c11.6-4.2,18.1-12.4,19.9-24.4c3.4-22.6,24.5-37.7,47.1-33.4
	c12.8,2.4,22.9-1.3,31.2-11.3c15-17.9,39.4-20.2,57.3-5.1c10.1,8.5,20.8,10.3,33,5.7c4.5-1.7,9.5-2.2,14.4-2.6
	c4-0.4,6.7,2.3,6.8,5.6c0.1,3.3-2.5,5.4-6.5,6c-4.7,0.7-9.4,1.5-13.9,2.9c-15.1,4.6-28.6,1.9-40.6-8.4c-9.7-8.3-22.1-10.1-32.7-4.2
	c-3.2,1.8-6.4,4.2-8.7,7.1c-11.3,14-25.6,18.8-43.1,15.4c-15.5-3-30.7,8-33.1,23.7c-2.5,16.9-11.9,28.2-27.9,34
	c-14,5-21.3,16.4-19.8,31.1c0.3,2.6,1.2,5.1,2,7.6c5.6,15.6,3.2,29.7-7.7,42.3c-3.6,4.2-6.2,8.8-7.1,15c6.4-2.3,12.3-4.7,18.4-6.5
	c4.1-1.2,5.4-3.3,5.7-7.6c4.4-61,34.3-104.8,90.1-129.5c56.9-25.1,124.9-9.4,166.2,37.1c2.4,2.7,4.3,3.3,7.6,1.9
	c6.1-2.6,12.5-4.6,19.2-7.1c-4.3-4-9.1-6-14.3-6.8c-16.8-2.6-27.9-11.8-33.9-27.6c-1.4-3.6-3.4-7-5.5-10.2c-2.5-3.8-2.6-6.7,0.3-9
	c2.8-2.2,6.3-1.8,8.8,1.9c2.7,4,5.4,8.3,7,12.8c4.4,12.1,12.7,19,25.4,20.8c8.8,1.3,16.2,5.3,22.4,11.6c0.9,0.9,2.8,1.5,4,1.2
	c8-2.1,14.2,0.9,17.1,8.8c8.5,23.3,17,46.6,25.5,69.9c0.2,0.6,0.6,1.1,0.9,1.6L7404.6,283.3L7404.6,283.3L7404.6,283.3z
	 M7075.4,300.2c4.1-1.4,8.1-3,12.1-4.2c4.4-1.3,8.6,2.5,7,6.7c-0.7,2-3.1,3.9-5.2,4.7c-19.2,7.2-38.5,14.2-57.8,21.1
	c-2.9,1-3.6,2.1-2.5,5.2c8.1,22,16.2,43.9,24,66c1.3,3.7,2.8,4,6.3,2.8c52.1-19.1,104.3-38,156.5-57c57.7-21,115.4-42,173.2-63
	c3.1-1.1,4-3.2,2.9-6.3c-7.9-21.8-15.9-43.5-23.7-65.3c-1.1-3.1-2.2-4-5.7-2.8c-55.9,20.5-111.9,40.8-167.8,61.1
	c-25.5,9.3-51.1,18.6-76.6,27.9c-4.9,1.8-7.8,0.8-9.1-2.9c-1.3-3.4,0.5-6,5.1-7.8c2.6-1,5.1-2,8-3c-3.8-10.6-7.6-21-11.3-31.4
	c-2.6-7.4,0-12.9,7.4-15.6c18.7-6.8,37.4-13.6,56.1-20.4c5.6-2.1,11.2-4.1,16.9-6.2c-1-2.7-2-5.1-2.7-7.5c-1.4-4.6-0.7-8.8,3.1-12.1
	c3.6-3.1,7.6-3.8,12-1.8c16.3,7.6,32.7,15.1,49,22.9c6.3,3,8.2,8.7,5.5,15.2c-1.2,2.7-2.4,5.4-4.1,9c19.7-7.2,38.6-14.1,57.7-21
	c-38-42.5-101.5-57.8-156.6-32.9C7097,207.6,7074.9,263.9,7075.4,300.2L7075.4,300.2L7075.4,300.2z M7220.9,411.7
	c-1.5-4.2-2.8-7.6-4-11c-1.5-4.4-0.3-7,4-8.7c2.1-0.8,4.2-1.6,6.4-2.4c8.8-3.2,17.5-6.3,26.3-9.5c2.8-1,5.4-0.4,6.5,2
	c0.9,1.8,0.7,4.6,0,6.6c-0.5,1.3-2.7,2.1-4.3,2.7c-8.7,3.3-17.4,6.4-26.4,9.7c0.9,2.6,1.8,5,2.5,7.4c1.5,4.6,0.8,8.8-2.8,12.1
	c-3.6,3.3-7.9,3.8-12.3,1.8c-16.2-7.5-32.5-15-48.6-22.7c-6.5-3.1-8.4-8.9-5.5-15.5c1.2-2.7,2.4-5.4,4-8.8
	c-19.3,7-38,13.8-56.7,20.6c34.3,39.6,96.8,58.5,154.1,34c29.1-12.5,51.1-32.8,66.2-60.7c9.9-18.3,15.2-37.9,16-59.3
	c-16.3,5.9-32,11.6-47.9,17.4c3.8,10.5,7.6,20.7,11.3,31c2.8,7.7,0.1,13.4-7.6,16.2c-5.8,2.1-11.6,4.2-17.4,6.3
	c-4.9,1.7-7.9,0.9-9.3-2.7c-1.3-3.4,0.5-6.3,5.2-8c6.1-2.3,12.2-4.5,18.6-6.9c-3.9-10.8-7.8-21.3-11.7-32
	c-34.9,12.7-69.3,25.2-103.7,37.8c-0.8,0.3-1.7,0.8-2,1.4c-3,6.1-5.8,12.2-8.8,18.6C7189,396.8,7204.6,404.1,7220.9,411.7
	L7220.9,411.7L7220.9,411.7z M7382.6,298.8c-0.5-0.4-0.9-0.9-1.4-1.3c-6.7,2.4-13.4,4.9-20.1,7.2c-2.4,0.8-3.1,2.2-3.3,4.6
	c-0.7,8.4-1.1,16.9-2.8,25.1c-14,68.1-71.8,115.1-137,117.9c-43.2,1.9-80.3-12.6-111.4-42.7c-3-2.9-5.7-7.6-9.2-8.4
	c-3.6-0.7-8,2.4-12,3.9c-3.6,1.3-7.1,2.6-11.1,4c4.6,4,9.3,6,14.5,6.8c16.6,2.5,27.8,11.6,33.6,27.4c6.5,17.6,21.6,24.6,39.4,18.1
	c15.2-5.5,29-3,41.3,7.5c14,11.9,31.5,10.4,43-3.7c10.3-12.5,23.5-17.7,39.4-14.5c19.6,4,33.9-9.9,36-25.1
	c2.1-15.9,11.8-26.6,27-32.2c17.7-6.5,24.7-21.7,18.2-39.4c-5.5-15.3-2.8-29.1,7.5-41.7C7377.7,308.3,7379.9,303.3,7382.6,298.8
	L7382.6,298.8L7382.6,298.8z M7247.4,221.5c-15.9-7.4-31.4-14.6-47.8-22.3c1.5,4.2,2.6,7.3,3.6,10.3c1.8,5.3,0.7,7.6-4.6,9.6
	c-15.8,5.8-31.7,11.5-47.5,17.3c-9.9,3.6-19.8,7.2-29.9,10.9c3.9,10.8,7.8,21.3,11.6,31.7c0.7-0.1,1.1-0.1,1.4-0.2
	c34.1-12.4,68.1-24.8,102.2-37.2c1-0.4,2.2-1.3,2.7-2.3C7241.8,233.6,7244.5,227.8,7247.4,221.5L7247.4,221.5L7247.4,221.5z"/>
<path d="M2572.5,169c-3.1-6.5-5.8-12.4-8.6-18.3c-1.6-3.4-3.3-6.7-4.8-10.2c-1.6-3.7-0.4-6.8,3.3-8.1c6.1-2.1,12.1-4.3,18.4-5.7
	c2.1-0.4,5.2,1,6.9,2.6c10.6,10,21.1,20.2,31.4,30.6c2.1,2.1,4.1,2.5,6.8,2.1c8.7-1.3,17.5-2.7,26.2-3.5c9.7-0.8,18.8,1.9,26,8.4
	c4.5,4.1,9.4,6.8,14.9,8.9c7.9,3.1,11.7,10.8,9.7,18.5c-1.8,6.9-7.3,11.2-15.5,11.7c-10.6,0.8-21.1,1.2-31.7,1.8
	c-9.4,0.5-18.7,1-28.1,1.7c-1.3,0.1-2.9,1.6-3.6,2.9c-7.1,12.8-14,25.6-20.8,38.5c-1.9,3.5-4.4,5.1-8.3,4.9
	c-5.4-0.2-10.7-0.2-16.1-0.4c-5-0.2-7.1-2.9-6.4-7.9c1.5-10.3,3-20.6,4.5-31c0.2-1.2,0.1-2.4,0.2-3.9c-3.3,0-6.4-0.1-9.6,0
	c-20.5,1.1-40.9,2.4-61.4,3.5c-9.5,0.5-17.2-3.2-21.6-11.8c-5.4-10.4-10.2-21.2-15.1-31.9c-1.8-3.9-0.2-7.1,3.9-8.5
	c10.9-3.7,19.9-1.1,27.8,7.7c2.3,2.6,3.7,6.5,8.7,5.6c10.7-1.8,21.5-3,32.2-4.4C2551.9,171.8,2561.8,170.5,2572.5,169L2572.5,169
	L2572.5,169z M2578.9,200.8c0.4-3.3,0.8-6.1,1.2-8.8c0.4-3.5,2.3-5.6,5.9-6.1c2.4-0.3,4.8-0.5,7.2-0.7c12.2-1.2,24.5-2.6,36.8-3.6
	c5.7-0.5,8.3,3.7,5.7,8.9c-1.1,2.2-2.3,4.4-3.8,7.2c1.9,0,3.2,0.1,4.5,0c11.2-0.6,22.5-1.3,33.7-1.9c5.8-0.3,11.5-0.5,17.2-1.2
	c1.6-0.2,4.2-2,4.2-3.1c0.1-1.6-1.5-3.9-3-4.8c-2.6-1.6-5.7-2.2-8.5-3.4c-1.6-0.7-3.3-1.5-4.3-2.8c-7.6-9.3-17.4-11.4-28.9-9.6
	c-12.9,2.1-26,3.5-39,5.2c-20.8,2.8-41.6,5.5-62.4,8.3c-12.9,1.7-25.7,3.5-38.6,5.3c-3.6,0.5-6.5-0.3-8.8-3.4
	c-2.2-2.9-4.6-5.6-7.1-8.2c-2.1-2.2-4.5-4-8.2-3.4c3.6,7.6,7.1,15,10.4,22.4c2.5,5.7,6.6,8.4,12.9,8c11.1-0.7,22.2-1.1,33.3-1.8
	C2552.4,202.4,2565.5,201.6,2578.9,200.8L2578.9,200.8L2578.9,200.8z M2584.4,243.9c5.9,0.7,10.1-1.2,12.6-5.9
	c7.2-13.4,14.5-26.8,21.7-40.2c0.6-1.1,1.1-2.3,2-3.9c-7.8,0.8-14.9,1.5-22.1,2.1c-7.3,0.7-7.5,0.7-8.6,8
	C2588,217.2,2586.2,230.4,2584.4,243.9L2584.4,243.9L2584.4,243.9z M2607.2,164.4c-1.3-1.4-2.1-2.3-3-3.2
	c-6.4-6.2-12.8-12.5-19.2-18.7c-4.6-4.5-6.9-4.6-12.6-0.5c3.6,7.7,7.2,15.4,11,23.1c0.5,1,2.4,2.1,3.6,2
	C2593.5,166.3,2600.1,165.4,2607.2,164.4L2607.2,164.4L2607.2,164.4z"/>
<path d="M2394.7,396.6c0.1-20.5,17.4-36.4,37.3-34.8c20.1,1.7,34.6,19.9,31.5,39.8c-3.2,20.1-14.5,35.2-30.2,47.5
	c-2.4,1.8-4.9,2.3-7.4,0.4c-17-13.2-29-29.4-31.1-51.6C2394.7,397.3,2394.7,396.8,2394.7,396.6L2394.7,396.6L2394.7,396.6z
	 M2429.5,438.4c3.1-3.4,5.9-6.1,8.3-9c7.6-9.2,13.7-19.2,14.5-31.5c0.8-13.2-9.2-24.1-22.6-24.6c-12.7-0.5-24,10.2-23.6,23.2
	C2406.8,413.8,2417,426.3,2429.5,438.4L2429.5,438.4L2429.5,438.4z"/>
<path d="M2776.6,395.9c-1,18.1-9.3,31.9-20.6,44.1c-3.1,3.3-6.7,6.2-10.2,9.1c-2.6,2.2-5.4,2.1-8.1,0
	c-15.6-12.3-26.9-27.5-30.1-47.6c-2.9-17.7,9.1-35.1,26.5-38.9c18.2-4,36.4,6.9,41.1,24.6C2776.1,390.3,2776.3,393.6,2776.6,395.9
	L2776.6,395.9L2776.6,395.9z M2741.6,437.8c9.2-6.5,18.8-20.2,21.9-31.6c1-3.6,1.5-7.4,1.5-11c-0.1-11.7-10.1-21.4-22.4-22
	c-11.6-0.6-22.8,8.6-23.6,20.2C2717.9,412.5,2729,425.5,2741.6,437.8L2741.6,437.8L2741.6,437.8z"/>
<path d="M2480.5,331.6c-0.6,0.8-1.4,2.7-2.9,3.8c-5.9,4.2-11.9,8.2-17.9,12.2c-3,2-6.4,1.6-8.2-0.9c-1.9-2.5-1.5-6,1.4-8.1
	c6.2-4.4,12.5-8.8,18.9-12.8C2475.8,323.3,2480.5,326,2480.5,331.6L2480.5,331.6L2480.5,331.6z"/>
<path d="M2521.2,313.2c-0.7,0.8-1.9,2.9-3.7,3.7c-6.7,3-13.5,5.6-20.4,8.2c-3.4,1.3-6.6,0.1-7.8-2.8c-1.2-3-0.1-6.1,3.3-7.6
	c6.9-2.9,13.8-5.8,20.8-8.3C2517.7,304.9,2521.3,307.7,2521.2,313.2z"/>
<path d="M2668.8,310.7c2,0.6,3,0.8,4,1.3c6.4,3,12.8,6,19.1,9.2c3.9,2,4.9,5.1,3.2,8.2c-1.7,3-4.8,3.6-8.6,1.8c-6.2-3-12.5-6-18.7-9
	c-2.9-1.4-4.4-3.9-3.2-6.9C2665.4,313.4,2667.5,312,2668.8,310.7L2668.8,310.7L2668.8,310.7z"/>
<path d="M2625.8,297.6c9.2,2.4,17.4,4.4,25.4,6.8c3,0.9,3.6,3.9,2.7,6.7c-0.9,2.8-3.1,4.3-5.9,3.7c-7.8-1.7-15.6-3.6-23.3-5.7
	c-2.8-0.8-4.3-3.4-3.4-6C2622,301,2624.2,299.4,2625.8,297.6L2625.8,297.6L2625.8,297.6z"/>
<path d="M2537.2,311.2c-2.8-0.1-4.9-1.4-5.4-4.6c-0.5-3,0.7-5.6,3.7-6.3c8-1.6,16-3,24.1-4.1c3-0.4,5.1,1.7,5.6,4.7
	c0.5,3-0.9,5.5-3.9,6.1C2553.3,308.7,2545.4,309.8,2537.2,311.2L2537.2,311.2L2537.2,311.2z"/>
<path d="M2591.7,294.6c4.7,0.2,8.6,0.2,12.5,0.7c4.1,0.5,6,2.9,5.7,6.3c-0.3,3.3-3,5.3-6.9,5.1c-6.7-0.2-13.4-0.5-20-0.7
	c-4.1-0.1-6.8-2.4-6.8-5.7c0-3.2,2.5-5.5,6.5-5.6C2585.9,294.5,2589.2,294.6,2591.7,294.6L2591.7,294.6L2591.7,294.6z"/>
<path d="M2720.7,342.1c0.1,4.6-3.9,7.7-7.4,6c-3.1-1.5-6.1-3.5-8.3-6.1c-1.1-1.4-1.2-4.8-0.2-6.4c0.8-1.5,4.2-2.9,5.6-2.3
	c3.4,1.6,6.4,4.2,9.4,6.6C2720.4,340.4,2720.5,341.7,2720.7,342.1L2720.7,342.1L2720.7,342.1z"/>
<path class="st4" d="M2578.9,200.8c-13.4,0.8-26.5,1.7-39.6,2.4c-11.1,0.6-22.2,1.1-33.3,1.8c-6.3,0.4-10.4-2.3-12.9-8
	c-3.3-7.4-6.9-14.8-10.4-22.4c3.7-0.6,6.1,1.1,8.2,3.4c2.5,2.6,4.9,5.3,7.1,8.2c2.3,3.1,5.2,3.9,8.8,3.4c12.9-1.8,25.7-3.5,38.6-5.3
	c20.8-2.8,41.6-5.6,62.4-8.3c13-1.7,26-3.1,39-5.2c11.5-1.8,21.2,0.3,28.9,9.6c1,1.3,2.8,2.1,4.3,2.8c2.8,1.2,5.9,1.9,8.5,3.4
	c1.5,0.9,3,3.2,3,4.8c0,1.1-2.6,2.9-4.2,3.1c-5.7,0.7-11.5,0.9-17.2,1.2c-11.2,0.7-22.5,1.3-33.7,1.9c-1.3,0.1-2.6,0-4.5,0
	c1.4-2.8,2.7-4.9,3.8-7.2c2.5-5.2,0-9.4-5.7-8.9c-12.3,1-24.5,2.4-36.8,3.6c-2.4,0.2-4.8,0.4-7.2,0.7c-3.6,0.4-5.4,2.6-5.9,6.1
	C2579.7,194.7,2579.3,197.5,2578.9,200.8L2578.9,200.8L2578.9,200.8z"/>
<path class="st4" d="M2584.4,243.9c1.9-13.5,3.6-26.7,5.6-39.9c1.1-7.3,1.2-7.3,8.6-8c7.2-0.7,14.3-1.4,22.1-2.1
	c-0.8,1.7-1.4,2.8-2,3.9c-7.2,13.4-14.5,26.8-21.7,40.2C2594.5,242.7,2590.3,244.6,2584.4,243.9L2584.4,243.9L2584.4,243.9z"/>
<path class="st4" d="M2607.2,164.4c-7.1,0.9-13.7,1.9-20.3,2.6c-1.1,0.1-3.1-0.9-3.6-2c-3.8-7.6-7.4-15.4-11-23.1
	c5.6-4.1,8-4,12.6,0.5c6.4,6.2,12.8,12.5,19.2,18.7C2605.1,162.1,2605.9,163.1,2607.2,164.4L2607.2,164.4L2607.2,164.4z"/>
<path class="st4" d="M2429.5,438.4c-12.6-12.1-22.8-24.5-23.3-42c-0.4-13,10.9-23.7,23.6-23.2c13.4,0.5,23.4,11.4,22.6,24.6
	c-0.8,12.4-6.9,22.3-14.5,31.5C2435.4,432.3,2432.7,435,2429.5,438.4L2429.5,438.4L2429.5,438.4z M2429.4,411.5
	c8.4,0,15.3-6.9,15.3-15.3c0-8.3-7.1-15.3-15.5-15.2c-8.5,0.1-15.2,6.9-15.2,15.4C2414.1,405,2420.8,411.6,2429.4,411.5
	L2429.4,411.5L2429.4,411.5z"/>
<path class="st4" d="M2741.6,437.8c-12.5-12.3-23.7-25.3-22.5-44.4c0.7-11.6,11.9-20.8,23.6-20.2c12.3,0.6,22.2,10.3,22.4,22
	c0,3.7-0.5,7.5-1.5,11C2760.3,417.5,2750.7,431.2,2741.6,437.8L2741.6,437.8L2741.6,437.8z M2741.7,411.5c8.6,0.1,15.3-6.4,15.5-15
	c0.2-8.5-6.6-15.5-15.1-15.5c-8.4-0.1-15.5,6.7-15.6,15.1C2726.3,404.4,2733.3,411.5,2741.7,411.5L2741.7,411.5L2741.7,411.5z"/>
<path d="M2429.4,411.5c-8.6,0-15.3-6.6-15.4-15.1c0-8.5,6.7-15.3,15.2-15.4c8.4,0,15.4,6.9,15.5,15.2
	C2444.7,404.6,2437.8,411.5,2429.4,411.5L2429.4,411.5L2429.4,411.5z M2434.8,396.1c-2.6-1.8-4.2-3.7-5.5-3.5
	c-1.4,0.2-3.3,2.2-3.7,3.7c-0.5,2.5,1.4,4.2,3.8,3.8C2431,399.8,2432.3,398.1,2434.8,396.1L2434.8,396.1L2434.8,396.1z"/>
<path d="M2741.7,411.5c-8.4-0.1-15.3-7.1-15.2-15.4c0.2-8.4,7.2-15.1,15.6-15.1c8.4,0.1,15.2,7,15.1,15.5
	C2757,405.1,2750.3,411.6,2741.7,411.5L2741.7,411.5L2741.7,411.5z M2747.4,396.5c-2.4-2-3.9-4-5.2-3.9c-1.4,0.1-3.5,1.9-3.9,3.4
	c-0.6,2.3,1.1,4.4,3.6,4.1C2743.4,399.9,2744.8,398.3,2747.4,396.5L2747.4,396.5L2747.4,396.5z"/>
<path class="st4" d="M2434.8,396.1c-2.5,1.9-3.8,3.7-5.3,3.9c-2.4,0.4-4.4-1.4-3.8-3.8c0.3-1.5,2.2-3.5,3.7-3.7
	C2430.6,392.4,2432.2,394.4,2434.8,396.1L2434.8,396.1L2434.8,396.1z"/>
<path class="st4" d="M2747.4,396.5c-2.6,1.7-4,3.4-5.5,3.5c-2.5,0.3-4.2-1.7-3.6-4.1c0.4-1.5,2.5-3.3,3.9-3.4
	C2743.5,392.6,2744.9,394.6,2747.4,396.5L2747.4,396.5L2747.4,396.5z"/>
<g>
	<text transform="matrix(1 0 0 1 87.3101 703.99)" class="st8 st9">PICKED UP</text>
	<text transform="matrix(1 0 0 1 1252.46 703.99)" class="st8 st9">DEPARTED</text>
	<text transform="matrix(1 0 0 1 2356.4099 704.6)" class="st8 st9">IN TRANSIT</text>
	<text transform="matrix(1 0 0 1 3410.8601 703.99)" class="st8 st9">FLIGHT ARRIVED</text>
	<text transform="matrix(1 0 0 1 4403.4702 705.21)" class="st8 st9">CUSTOMS PROCESS</text>
	<text transform="matrix(1 0 0 1 5588.5 703.99)" class="st8 st9">OUT FOR DELIVERY</text>
	<text transform="matrix(1 0 0 1 6960.0298 703.99)" class="st8 st9">DELIVERED</text>
</g>
</svg>
