<?xml version="1.0" encoding="UTF-8"?>
<svg version="1.1" xmlns="http://www.w3.org/2000/svg" width="512" height="512">
<path d="M0 0 C10.16436479 7.34565468 18.80764598 17.69647698 27.625 26.5625 C29.21721355 28.15973887 30.80965961 29.756746 32.40234375 31.35351562 C36.27091406 35.23300916 40.13660329 39.11535466 44 43 C47.30047378 41.55972632 49.46159068 39.77749121 51.98657227 37.22460938 C53.14280846 36.06330505 53.14280846 36.06330505 54.32240295 34.87854004 C55.14542404 34.04205933 55.96844513 33.20557861 56.81640625 32.34375 C57.66927719 31.48567749 58.52214813 30.62760498 59.40086365 29.74353027 C62.1261917 27.0003833 64.84474837 24.25065187 67.5625 21.5 C70.28467378 18.75021796 73.00828321 16.00189804 75.73484802 13.25646973 C77.43151198 11.54754097 79.12549574 9.83594627 80.81654358 8.12145996 C81.58421555 7.34725708 82.35188751 6.5730542 83.14282227 5.77539062 C83.81692642 5.09303345 84.49103058 4.41067627 85.18556213 3.7076416 C89.11577524 0.00875749 91.78160776 -0.5996472 96.98925781 -0.48193359 C103.26563555 0.52273472 108.78527079 3.79728231 114.375 6.6875 C116.44541175 7.72914515 118.519348 8.76355124 120.59335327 9.79801941 C122.00323851 10.5020647 123.41194854 11.20846822 124.81948853 11.91719055 C131.51888839 15.28674719 138.30709863 18.43928887 145.125 21.5625 C154.63271176 25.9425553 164.08415105 30.4268711 173.5 35 C182.95775475 39.5933731 192.45220822 44.09579975 202 48.5 C211.54779802 52.90420313 221.04212983 57.40685721 230.5 62 C240.20959899 66.71471629 249.95498674 71.34028389 259.75 75.875 C260.91281494 76.41447266 262.07562988 76.95394531 263.27368164 77.50976562 C268.29086323 79.83419507 273.31248853 82.14611131 278.35546875 84.4140625 C279.14276367 84.77258301 279.93005859 85.13110352 280.74121094 85.50048828 C282.13736203 86.13586429 283.53739184 86.76283619 284.94238281 87.37841797 C289.11629424 89.28988725 292.08239535 91.44602317 295 95 C296.22458628 98.53703319 295.85628001 101.39123253 295 105 C293.56323242 107.08666992 293.56323242 107.08666992 291.54296875 109.23046875 C290.72860352 110.09615479 289.91423828 110.96184082 289.07519531 111.85375977 C288.05287268 112.90518007 287.02750695 113.95364554 286 115 C285.06879333 115.94853348 285.06879333 115.94853348 284.11877441 116.91622925 C278.92530782 122.18632559 273.68375354 127.40754516 268.4375 132.625 C266.84026113 134.21721355 265.243254 135.80965961 263.64648438 137.40234375 C259.76699084 141.27091406 255.88464534 145.13660329 252 149 C253.44027368 152.30047378 255.22250879 154.46159068 257.77539062 156.98657227 C258.93669495 158.14280846 258.93669495 158.14280846 260.12145996 159.32240295 C260.95794067 160.14542404 261.79442139 160.96844513 262.65625 161.81640625 C263.51432251 162.66927719 264.37239502 163.52214813 265.25646973 164.40086365 C267.9996167 167.1261917 270.74934813 169.84474837 273.5 172.5625 C276.24978204 175.28467378 278.99810196 178.00828321 281.74353027 180.73484802 C283.45245903 182.43151198 285.16405373 184.12549574 286.87854004 185.81654358 C288.03984436 186.96805153 288.03984436 186.96805153 289.22460938 188.14282227 C289.90696655 188.81692642 290.58932373 189.49103058 291.2923584 190.18556213 C294.25974839 193.33853332 295.35952287 195.54998028 295.5625 199.8125 C295.65724609 201.05966797 295.65724609 201.05966797 295.75390625 202.33203125 C294.43826993 206.98788413 290.15978873 209.72053027 286.09861755 212.12638855 C284.11724154 213.13392475 282.11722356 214.06914609 280.08984375 214.98046875 C279.3593129 215.32000076 278.62878204 215.65953278 277.87611389 216.00935364 C275.56798767 217.07939728 273.25312574 218.1337996 270.9375 219.1875 C269.38167258 219.90453914 267.82632941 220.62262998 266.27148438 221.34179688 C264.07737911 222.35652602 261.88275623 223.3697972 259.68406677 224.3745575 C259.02640823 224.67529678 258.36874969 224.97603607 257.69116211 225.28588867 C257.06587616 225.57168793 256.44059021 225.85748718 255.7963562 226.15194702 C254.07600065 226.96412038 252.38748029 227.84272087 250.70141602 228.72387695 C248 230 248 230 245 230 C245.00460896 230.84575686 245.00921793 231.69151373 245.01396656 232.56289959 C245.1243553 253.13551374 245.20711255 273.70807689 245.25906086 294.2809248 C245.28485 304.22979043 245.32001411 314.17845846 245.37719727 324.12719727 C245.42701048 332.79783948 245.45928585 341.4683386 245.47044247 350.13911992 C245.47696478 354.73093428 245.49230863 359.32233922 245.52865028 363.91402245 C245.56257697 368.23557533 245.57305978 372.55655001 245.56553841 376.87822342 C245.56691445 378.46452412 245.57686717 380.05084407 245.59602737 381.63702965 C245.62091582 383.80362642 245.6149236 385.96804186 245.60127258 388.13468933 C245.60588155 389.34684711 245.61049051 390.55900488 245.61523914 391.80789471 C244.82013431 395.93321472 243.19850406 397.36509724 240 400 C236.93579102 401.84594727 236.93579102 401.84594727 233.50390625 403.56640625 C232.88323776 403.88156693 232.26256927 404.1967276 231.62309265 404.5214386 C230.29620127 405.19413697 228.96713881 405.86256744 227.6361084 406.52703857 C224.09770511 408.29394891 220.57539168 410.09249843 217.05078125 411.88671875 C216.34915863 412.24280212 215.64753601 412.5988855 214.9246521 412.96575928 C209.3037325 415.82487986 203.76297444 418.81283702 198.25 421.875 C188.00941027 427.54036327 177.59929883 432.85914131 167.18029785 438.18597412 C158.39095406 442.6819775 149.63698919 447.21547473 141 452 C131.53760844 457.23925299 121.93741452 462.19319858 112.3125 467.125 C111.54479279 467.51844604 110.77708557 467.91189209 109.9861145 468.31726074 C106.98530478 469.85497271 103.9844028 471.39250438 100.98332214 472.9296875 C95.62123555 475.67760857 90.27012345 478.44524862 84.9375 481.25 C84.23995605 481.61416016 83.54241211 481.97832031 82.82373047 482.35351562 C78.31355854 484.72457744 73.87011626 487.19768957 69.4375 489.7109375 C67.68270133 490.69308483 65.92656036 491.67277605 64.16970825 492.65124512 C62.48900163 493.59604854 60.8212643 494.56380834 59.15405273 495.53222656 C52.72058155 499.11129565 47.40586279 501.64803827 40 500 C36.20526581 498.59220069 32.76693006 496.74268306 29.25 494.75 C28.24614258 494.20424316 27.24228516 493.65848633 26.20800781 493.09619141 C23.12752523 491.41685025 20.06302814 489.71092573 17 488 C13.58709826 486.11810781 10.16863216 484.24645692 6.75 482.375 C5.88084961 481.89643555 5.01169922 481.41787109 4.11621094 480.92480469 C-5.43055691 475.69832548 -15.12775482 470.76922296 -24.81750488 465.81512451 C-34.45634662 460.88459014 -44.02475043 455.86422277 -53.49609375 450.6171875 C-62.07149442 445.8974933 -70.78548541 441.45539475 -79.5 437 C-89.99325574 431.63505416 -100.43609421 426.2152075 -110.73999023 420.49194336 C-116.12580413 417.51756493 -121.56501092 414.67082455 -127.05078125 411.88671875 C-127.75312897 411.52918518 -128.45547668 411.17165161 -129.17910767 410.80328369 C-132.66644879 409.02887283 -136.15835869 407.26475427 -139.65917969 405.51708984 C-140.94095831 404.86726243 -142.22254287 404.21705206 -143.50390625 403.56640625 C-145.20268921 402.71477905 -145.20268921 402.71477905 -146.93579102 401.84594727 C-150.28002704 399.83130552 -152.49682857 398.00213105 -155 395 C-155.61523914 391.80789471 -155.61523914 391.80789471 -155.60127258 388.13468933 C-155.60554471 387.45663107 -155.60981683 386.7785728 -155.61421841 386.07996732 C-155.62243521 383.81459599 -155.59498925 381.5510885 -155.56762695 379.28588867 C-155.56621618 377.65955652 -155.56700904 376.03322117 -155.56983948 374.40689087 C-155.57127391 369.99589126 -155.54188004 365.58557165 -155.50696969 361.17473006 C-155.47571058 356.56365009 -155.47277581 351.95255447 -155.46684265 347.34138489 C-155.45130289 338.61136513 -155.41027264 329.88165849 -155.3600952 321.15177661 C-155.30420586 311.21235353 -155.27671627 301.27291548 -155.25161803 291.33337438 C-155.1993569 270.8887415 -155.11141202 250.44439048 -155 230 C-155.75408646 229.86599792 -156.50817291 229.73199585 -157.28511047 229.59393311 C-160.9114044 228.80061316 -164.05095448 227.21449758 -167.35546875 225.578125 C-168.05714676 225.2362616 -168.75882477 224.89439819 -169.48176575 224.54217529 C-171.7196966 223.45018065 -173.95358762 222.35018798 -176.1875 221.25 C-177.66966772 220.52552147 -179.15208739 219.80155816 -180.63476562 219.078125 C-183.48308095 217.68718425 -186.32771038 216.28912196 -189.16943359 214.88476562 C-191.50840631 213.72939992 -193.85301572 212.59458069 -196.20947266 211.47460938 C-197.55404541 210.82975586 -197.55404541 210.82975586 -198.92578125 210.171875 C-199.67899658 209.81706055 -200.43221191 209.46224609 -201.20825195 209.09667969 C-203 208 -203 208 -205 205 C-205.84242135 201.49526997 -205.7097093 198.5251428 -205 195 C-203.58154297 192.90112305 -203.58154297 192.90112305 -201.5546875 190.76171875 C-200.33060181 189.46488159 -200.33060181 189.46488159 -199.08178711 188.1418457 C-198.05698656 187.09215471 -197.02945503 186.04512664 -196 185 C-195.06838547 184.05173843 -195.06838547 184.05173843 -194.11795044 183.08432007 C-188.92471334 177.81406577 -183.6837195 172.59242099 -178.4375 167.375 C-176.84026113 165.78278645 -175.243254 164.19034039 -173.64648438 162.59765625 C-169.76699084 158.72908594 -165.88464534 154.86339671 -162 151 C-163.44027368 147.69952622 -165.22250879 145.53840932 -167.77539062 143.01342773 C-168.93669495 141.85719154 -168.93669495 141.85719154 -170.12145996 140.67759705 C-170.95794067 139.85457596 -171.79442139 139.03155487 -172.65625 138.18359375 C-173.51432251 137.33072281 -174.37239502 136.47785187 -175.25646973 135.59913635 C-177.9996167 132.8738083 -180.74934813 130.15525163 -183.5 127.4375 C-186.24978204 124.71532622 -188.99810196 121.99171679 -191.74353027 119.26515198 C-193.45245903 117.56848802 -195.16405373 115.87450426 -196.87854004 114.18345642 C-197.65274292 113.41578445 -198.4269458 112.64811249 -199.22460938 111.85717773 C-199.90696655 111.18307358 -200.58932373 110.50896942 -201.2923584 109.81443787 C-204.25974839 106.66146668 -205.35952287 104.45001972 -205.5625 100.1875 C-205.62566406 99.35605469 -205.68882812 98.52460937 -205.75390625 97.66796875 C-204.52999593 93.33672135 -201.67872536 91.42057105 -198 89 C-193.88276826 86.78857397 -189.64705528 84.89133604 -185.375 83 C-182.84917411 81.8594124 -180.32716241 80.71047552 -177.8046875 79.5625 C-177.15888733 79.26996338 -176.51308716 78.97742676 -175.84771729 78.67602539 C-169.00694879 75.5698547 -162.25363534 72.29016803 -155.5 69 C-144.89428328 63.84483422 -134.22765773 58.83397006 -123.51953125 53.89453125 C-115.13620303 50.0173593 -106.80804164 46.03495299 -98.5 42 C-89.04222797 37.40665934 -79.54777443 32.9042419 -70 28.5 C-60.8550466 24.28119018 -51.75283613 19.98560776 -42.68911743 15.59576416 C-40.83497316 14.69837679 -38.97955396 13.80367816 -37.1237793 12.90966797 C-31.97769536 10.42676273 -26.84173415 7.93259787 -21.75 5.33984375 C-6.82374553 -2.18977719 -6.82374553 -2.18977719 0 0 Z M-15.4296875 26.04296875 C-16.08295013 26.36265121 -16.73621277 26.68233368 -17.40927124 27.01170349 C-18.8241045 27.70418752 -20.23814638 28.39829023 -21.65148926 29.09381104 C-25.42186993 30.94836638 -29.19883704 32.78936789 -32.9765625 34.62890625 C-34.12517761 35.1883493 -34.12517761 35.1883493 -35.29699707 35.75909424 C-42.24237925 39.13363563 -49.23547853 42.39642185 -56.25 45.625 C-65.71553474 49.98556512 -75.12599206 54.44704466 -84.5 59 C-93.95773979 63.59340665 -103.4522468 68.09571601 -113 72.5 C-123.96243153 77.5577991 -134.85075169 82.75318389 -145.71362305 88.02001953 C-155.44795852 92.73965679 -165.21214593 97.39251701 -175 102 C-175.30530329 104.93562774 -175.30530329 104.93562774 -173.78515625 106.5756073 C-173.21667969 107.13742203 -172.64820313 107.69923676 -172.0625 108.27807617 C-171.42183594 108.91851364 -170.78117187 109.55895111 -170.12109375 110.21879578 C-169.42113281 110.90327286 -168.72117187 111.58774994 -168 112.29296875 C-166.93458984 113.35201164 -166.93458984 113.35201164 -165.84765625 114.43244934 C-163.57203004 116.69125019 -161.28620635 118.93941307 -159 121.1875 C-157.45765158 122.71480664 -155.91597594 124.242793 -154.375 125.77148438 C-150.59111171 129.52225221 -146.79879338 133.26433217 -143 137 C-138.99449544 135.73516196 -135.2629958 134.26513075 -131.4921875 132.41796875 C-129.91074951 131.64851929 -129.91074951 131.64851929 -128.29736328 130.86352539 C-127.1679834 130.31043701 -126.03860352 129.75734863 -124.875 129.1875 C-122.43374054 127.99960635 -119.9906516 126.81551819 -117.546875 125.6328125 C-116.60855331 125.17851616 -116.60855331 125.17851616 -115.65127563 124.71504211 C-109.17738677 121.5887749 -102.6539732 118.57178244 -96.125 115.5625 C-85.92225575 110.85414356 -75.78500235 106.02372773 -65.67779541 101.11502075 C-56.82668012 96.81875006 -47.93421371 92.62131285 -39 88.5 C-26.88763591 82.91105669 -14.86958654 77.14391296 -2.8671875 71.32421875 C6.39779658 66.83222352 15.69699446 62.41257312 25 58 C25.30316892 55.06737363 25.30316892 55.06737363 23.7986145 53.4243927 C23.23617035 52.86257797 22.6737262 52.30076324 22.09423828 51.72192383 C21.4600296 51.08148636 20.82582092 50.44104889 20.1723938 49.78120422 C19.47870697 49.09672714 18.78502014 48.41225006 18.0703125 47.70703125 C17.36478241 47.00100266 16.65925232 46.29497406 15.93234253 45.56755066 C14.43781431 44.07536515 12.93958651 42.58687734 11.43798828 41.10180664 C9.13268127 38.82010262 6.84098707 36.52536615 4.55078125 34.22851562 C3.0997493 32.78305971 1.64795189 31.33837172 0.1953125 29.89453125 C-0.49432587 29.20398148 -1.18396423 28.5134317 -1.89450073 27.80195618 C-2.53501373 27.17097519 -3.17552673 26.5399942 -3.83544922 25.88989258 C-4.39948456 25.33046463 -4.9635199 24.77103668 -5.54464722 24.19465637 C-8.79698826 21.52490509 -12.17875751 24.43107143 -15.4296875 26.04296875 Z M95.50668335 24.25280762 C94.92488312 24.83904907 94.34308289 25.42529053 93.74365234 26.02929688 C93.08311859 26.68998169 92.42258484 27.3506665 91.74203491 28.03137207 C91.03052277 28.75320679 90.31901062 29.4750415 89.5859375 30.21875 C88.85629791 30.95121948 88.12665833 31.68368896 87.37490845 32.43835449 C85.0368896 34.78760224 82.70590539 37.14369618 80.375 39.5 C78.79472806 41.09029823 77.21400471 42.68014803 75.6328125 44.26953125 C71.74994808 48.17449196 67.87284291 52.08510139 64 56 C66.85436068 59.03348363 69.75760916 60.52223343 73.52734375 62.3359375 C74.17919144 62.65137512 74.83103912 62.96681274 75.50263977 63.29180908 C77.6445754 64.32594385 79.79087309 65.35064325 81.9375 66.375 C83.43798603 67.09650874 84.93830974 67.81835514 86.43847656 68.54052734 C96.80854789 73.52177522 107.22927539 78.38943563 117.67749023 83.20458984 C125.99675521 87.0455253 134.25807063 90.99689518 142.5 95 C151.95773911 99.59340632 161.45222735 104.09575893 171 108.5 C180.14546654 112.71904655 189.248249 117.0148014 198.31253052 121.40478516 C200.16192386 122.30011801 202.01234195 123.19329915 203.86303711 124.0859375 C209.07783696 126.60424304 214.28435702 129.13442043 219.4609375 131.73046875 C220.25346924 132.12129639 221.04600098 132.51212402 221.86254883 132.91479492 C223.27512144 133.61159719 224.68185837 134.32043011 226.08081055 135.04418945 C228.07863806 136.06612305 228.07863806 136.06612305 231 137 C234.03164215 135.86852406 236.04074585 134.20482181 238.29980469 131.92724609 C238.92014587 131.30675385 239.54048706 130.6862616 240.17962646 130.04696655 C240.83706848 129.37920197 241.4945105 128.71143738 242.171875 128.0234375 C242.8542926 127.33819 243.53671021 126.6529425 244.23980713 125.94692993 C246.41461598 123.76094155 248.58236072 121.56809571 250.75 119.375 C252.2247999 117.89016745 253.70005506 116.40578694 255.17578125 114.921875 C258.78915448 111.2864709 262.39620853 107.64490176 266 104 C263.14563932 100.96651637 260.24239084 99.47776657 256.47265625 97.6640625 C255.82080856 97.34862488 255.16896088 97.03318726 254.49736023 96.70819092 C252.3554246 95.67405615 250.20912691 94.64935675 248.0625 93.625 C246.56201397 92.90349126 245.06169026 92.18164486 243.56152344 91.45947266 C233.19145211 86.47822478 222.77072461 81.61056437 212.32250977 76.79541016 C204.00324479 72.9544747 195.74192937 69.00310482 187.5 65 C178.04226089 60.40659368 168.54777265 55.90424107 159 51.5 C149.22367472 46.98992156 139.50104925 42.38215823 129.8125 37.6875 C128.58879026 37.09488013 127.36507613 36.50226932 126.14135742 35.90966797 C123.82470114 34.78760982 121.5080505 33.66554003 119.19140625 32.54345703 C114.73841044 30.38985854 110.28057809 28.24712894 105.8125 26.125 C105.12969971 25.79717529 104.44689941 25.46935059 103.7434082 25.1315918 C99.53307163 22.74378678 99.53307163 22.74378678 95.50668335 24.25280762 Z M35.9375 75.26171875 C34.8951268 75.77460449 34.8951268 75.77460449 33.83169556 76.29785156 C32.33368562 77.03568819 30.83737156 77.77697586 29.34259033 78.52133179 C25.36924375 80.49930908 21.38325139 82.45150632 17.3984375 84.40625 C16.19518326 84.99765022 16.19518326 84.99765022 14.96762085 85.60099792 C7.9002916 89.06748483 0.77789796 92.40082396 -6.375 95.6875 C-15.79952114 100.02599693 -25.16787354 104.46723951 -34.5 109 C-45.09647292 114.14650884 -55.75010342 119.156145 -66.44750977 124.09008789 C-76.34384269 128.66669705 -86.16627299 133.3868202 -95.97070312 138.15625 C-103.60564406 141.86627874 -111.27954167 145.47144395 -119 149 C-119 149.66 -119 150.32 -119 151 C-104.71844867 157.94739931 -90.42205789 164.8481811 -76 171.5 C-65.83847236 176.18724388 -55.7428092 180.99672835 -45.67724609 185.88525391 C-36.82631418 190.18143126 -27.93404562 194.37881324 -19 198.5 C-9.89360575 202.70146867 -0.82838861 206.97684469 8.19772339 211.34738159 C10.03999368 212.23910614 11.88327792 213.12870273 13.72680664 214.01782227 C19.11310721 216.61923822 24.48876497 219.23696873 29.8359375 221.91796875 C30.70855225 222.34883789 31.58116699 222.77970703 32.48022461 223.22363281 C34.05783689 224.00295604 35.62960077 224.79429776 37.19360352 225.60058594 C41.70516117 227.81011271 44.16774477 228.17331882 49 227 C51.15999032 226.1001466 53.2867577 225.11824451 55.3828125 224.078125 C55.98593262 223.78209885 56.58905273 223.48607269 57.21044922 223.18107605 C58.50799378 222.54343852 59.80386911 221.90239497 61.09820557 221.25827026 C64.5783198 219.5270164 68.0711133 217.82165568 71.5625 216.11328125 C72.62865036 215.59043297 72.62865036 215.59043297 73.71633911 215.05702209 C80.47378849 211.75031131 87.290014 208.58098792 94.125 205.4375 C103.63199884 201.05586155 113.08412422 196.57314193 122.5 192 C133.09798476 186.85284833 143.75321136 181.84277923 154.4519043 176.90771484 C164.35384314 172.3281466 174.17900462 167.59950927 183.99487305 162.83935547 C192.29522462 158.81553298 200.61791335 154.85083774 209 151 C209 150.34 209 149.68 209 149 C194.71844867 142.05260069 180.42205789 135.1518189 166 128.5 C155.83847236 123.81275612 145.7428092 119.00327165 135.67724609 114.11474609 C126.82631418 109.81856874 117.93404562 105.62118676 109 101.5 C99.26617098 97.0090482 89.58498549 92.42252453 79.9375 87.75 C78.71755075 87.15994914 77.49758031 86.56994206 76.27758789 85.97998047 C71.83222787 83.8288129 67.38717208 81.67715666 62.94921875 79.51074219 C60.28176214 78.20894308 57.61017716 76.91603674 54.9375 75.625 C54.17622803 75.24956055 53.41495605 74.87412109 52.63061523 74.48730469 C45.90278104 71.25419574 42.34104431 72.03492776 35.9375 75.26171875 Z M-144.49331665 164.25280762 C-145.07511688 164.83904907 -145.65691711 165.42529053 -146.25634766 166.02929688 C-146.91688141 166.68998169 -147.57741516 167.3506665 -148.25796509 168.03137207 C-148.96947723 168.75320679 -149.68098938 169.4750415 -150.4140625 170.21875 C-151.14370209 170.95121948 -151.87334167 171.68368896 -152.62509155 172.43835449 C-154.9631104 174.78760224 -157.29409461 177.14369618 -159.625 179.5 C-161.20527194 181.09029823 -162.78599529 182.68014803 -164.3671875 184.26953125 C-168.25005192 188.17449196 -172.12715709 192.08510139 -176 196 C-173.14563932 199.03348363 -170.24239084 200.52223343 -166.47265625 202.3359375 C-165.82080856 202.65137512 -165.16896088 202.96681274 -164.49736023 203.29180908 C-162.3554246 204.32594385 -160.20912691 205.35064325 -158.0625 206.375 C-156.56201397 207.09650874 -155.06169026 207.81835514 -153.56152344 208.54052734 C-143.19145211 213.52177522 -132.77072461 218.38943563 -122.32250977 223.20458984 C-114.00324479 227.0455253 -105.74192937 230.99689518 -97.5 235 C-88.04226089 239.59340632 -78.54777265 244.09575893 -69 248.5 C-59.85453346 252.71904655 -50.751751 257.0148014 -41.68746948 261.40478516 C-39.83807614 262.30011801 -37.98765805 263.19329915 -36.13696289 264.0859375 C-30.92216304 266.60424304 -25.71564298 269.13442043 -20.5390625 271.73046875 C-19.74653076 272.12129639 -18.95399902 272.51212402 -18.13745117 272.91479492 C-16.72487856 273.61159719 -15.31814163 274.32043011 -13.91918945 275.04418945 C-11.92136194 276.06612305 -11.92136194 276.06612305 -9 277 C-5.96835785 275.86852406 -3.95925415 274.20482181 -1.70019531 271.92724609 C-1.07985413 271.30675385 -0.45951294 270.6862616 0.17962646 270.04696655 C0.83706848 269.37920197 1.4945105 268.71143738 2.171875 268.0234375 C2.8542926 267.33819 3.53671021 266.6529425 4.23980713 265.94692993 C6.41461598 263.76094155 8.58236072 261.56809571 10.75 259.375 C12.2247999 257.89016745 13.70005506 256.40578694 15.17578125 254.921875 C18.78915448 251.2864709 22.39620853 247.64490176 26 244 C23.14563932 240.96651637 20.24239084 239.47776657 16.47265625 237.6640625 C15.82080856 237.34862488 15.16896088 237.03318726 14.49736023 236.70819092 C12.3554246 235.67405615 10.20912691 234.64935675 8.0625 233.625 C6.56201397 232.90349126 5.06169026 232.18164486 3.56152344 231.45947266 C-6.80854789 226.47822478 -17.22927539 221.61056437 -27.67749023 216.79541016 C-35.99675521 212.9544747 -44.25807063 209.00310482 -52.5 205 C-61.95773911 200.40659368 -71.45222735 195.90424107 -81 191.5 C-90.77632528 186.98992156 -100.49895075 182.38215823 -110.1875 177.6875 C-111.41120974 177.09488013 -112.63492387 176.50226932 -113.85864258 175.90966797 C-116.17529886 174.78760982 -118.4919495 173.66554003 -120.80859375 172.54345703 C-125.26158956 170.38985854 -129.71942191 168.24712894 -134.1875 166.125 C-134.87030029 165.79717529 -135.55310059 165.46935059 -136.2565918 165.1315918 C-140.46692837 162.74378678 -140.46692837 162.74378678 -144.49331665 164.25280762 Z M224.5703125 166.04296875 C223.91704987 166.36265121 223.26378723 166.68233368 222.59072876 167.01170349 C221.1758955 167.70418752 219.76185362 168.39829023 218.34851074 169.09381104 C214.57813007 170.94836638 210.80116296 172.78936789 207.0234375 174.62890625 C205.87482239 175.1883493 205.87482239 175.1883493 204.70300293 175.75909424 C197.75762075 179.13363563 190.76452147 182.39642185 183.75 185.625 C174.28446526 189.98556512 164.87400794 194.44704466 155.5 199 C146.04226021 203.59340665 136.5477532 208.09571601 127 212.5 C116.03756847 217.5577991 105.14924831 222.75318389 94.28637695 228.02001953 C84.55204148 232.73965679 74.78785407 237.39251701 65 242 C64.69469671 244.93562774 64.69469671 244.93562774 66.21484375 246.5756073 C66.78332031 247.13742203 67.35179687 247.69923676 67.9375 248.27807617 C68.57816406 248.91851364 69.21882813 249.55895111 69.87890625 250.21879578 C70.57886719 250.90327286 71.27882813 251.58774994 72 252.29296875 C73.06541016 253.35201164 73.06541016 253.35201164 74.15234375 254.43244934 C76.42796996 256.69125019 78.71379365 258.93941307 81 261.1875 C82.54234842 262.71480664 84.08402406 264.242793 85.625 265.77148438 C89.40888829 269.52225221 93.20120662 273.26433217 97 277 C101.00550456 275.73516196 104.7370042 274.26513075 108.5078125 272.41796875 C110.08925049 271.64851929 110.08925049 271.64851929 111.70263672 270.86352539 C112.8320166 270.31043701 113.96139648 269.75734863 115.125 269.1875 C117.56625946 267.99960635 120.0093484 266.81551819 122.453125 265.6328125 C123.39144669 265.17851616 123.39144669 265.17851616 124.34872437 264.71504211 C130.82261323 261.5887749 137.3460268 258.57178244 143.875 255.5625 C154.07842394 250.8538299 164.21639999 246.02317779 174.32421875 241.11401367 C183.13276238 236.83823908 191.98277967 232.66205801 200.875 228.5625 C212.31530559 223.28622555 223.6668957 217.8440566 234.99780273 212.33789062 C236.27196179 211.71872765 237.54613154 211.09958666 238.8203125 210.48046875 C239.43574417 210.18139618 240.05117584 209.88232361 240.68525696 209.57418823 C248.76070554 205.65400721 256.87618839 201.81870889 265 198 C265.30316892 195.06737363 265.30316892 195.06737363 263.7986145 193.4243927 C263.23617035 192.86257797 262.6737262 192.30076324 262.09423828 191.72192383 C261.4600296 191.08148636 260.82582092 190.44104889 260.1723938 189.78120422 C259.47870697 189.09672714 258.78502014 188.41225006 258.0703125 187.70703125 C257.36478241 187.00100266 256.65925232 186.29497406 255.93234253 185.56755066 C254.43781431 184.07536515 252.93958651 182.58687734 251.43798828 181.10180664 C249.13268127 178.82010262 246.84098707 176.52536615 244.55078125 174.22851562 C243.0997493 172.78305971 241.64795189 171.33837172 240.1953125 169.89453125 C239.50567413 169.20398148 238.81603577 168.5134317 238.10549927 167.80195618 C237.46498627 167.17097519 236.82447327 166.5399942 236.16455078 165.88989258 C235.60051544 165.33046463 235.0364801 164.77103668 234.45535278 164.19465637 C231.20301174 161.52490509 227.82124249 164.43107143 224.5703125 166.04296875 Z M-135 240 C-135 287.52 -135 335.04 -135 384 C-128.4 387.3 -121.8 390.6 -115 394 C-111.62602642 395.8096118 -108.2741784 397.62708035 -104.9375 399.5 C-95.228552 404.87305282 -85.37941862 409.95051647 -75.5 415 C-65.08711821 420.32323998 -54.73468046 425.71505965 -44.50390625 431.3828125 C-35.1753673 436.51701589 -25.68263628 441.32859283 -16.20236206 446.17443848 C-6.03122073 451.37603106 4.06285842 456.68642198 14.06933594 462.20019531 C24.10714948 468.71644553 24.10714948 468.71644553 35 472 C35 404.02 35 336.04 35 266 C30.45103514 269.89911273 26.13313318 273.73517306 21.953125 277.984375 C21.1463028 278.79687714 21.1463028 278.79687714 20.32318115 279.62579346 C18.62962924 281.33141446 16.93940972 283.04027674 15.25 284.75 C13.00810355 287.01851778 10.76288967 289.28367649 8.515625 291.546875 C8.00622375 292.06457458 7.49682251 292.58227417 6.97198486 293.11566162 C0.83640172 299.29367153 0.83640172 299.29367153 -4.2890625 299.54296875 C-11.73689272 299.37461816 -17.91405521 295.65318722 -24.375 292.3125 C-26.44541175 291.27085485 -28.519348 290.23644876 -30.59335327 289.20198059 C-32.00323851 288.4979353 -33.41194854 287.79153178 -34.81948853 287.08280945 C-41.51888839 283.71325281 -48.30709863 280.56071113 -55.125 277.4375 C-64.63272093 273.05744047 -74.08398679 268.57280167 -83.5 264 C-93.37702116 259.20458136 -103.28870601 254.49299468 -113.25 249.875 C-114.39791016 249.34261719 -115.54582031 248.81023437 -116.72851562 248.26171875 C-122.79842731 245.45578215 -128.88799055 242.71644865 -135 240 Z M217.66796875 243.04296875 C216.31286589 243.70467252 214.95772076 244.36628974 213.60253906 245.02783203 C212.52413757 245.55549164 212.52413757 245.55549164 211.4239502 246.09381104 C199.91824618 251.72043377 188.38359143 257.2669289 176.75 262.625 C167.28458602 266.98582013 157.87391582 271.44684742 148.5 276 C137.3897708 281.39553474 126.22430447 286.65549234 115.0078125 291.82617188 C113.36619141 292.58317383 113.36619141 292.58317383 111.69140625 293.35546875 C110.25583374 294.01518677 110.25583374 294.01518677 108.79125977 294.68823242 C106.77688829 295.63489716 104.78016838 296.61944211 102.7956543 297.62719727 C98.33290351 299.81862576 94.83576382 300.08301628 90 299 C87.74145508 297.3996582 87.74145508 297.3996582 85.45703125 295.23828125 C84.59062012 294.42278809 83.72420898 293.60729492 82.83154297 292.76708984 C77.65130309 287.70476541 72.52654986 282.59140803 67.4375 277.4375 C65.29321504 275.2666839 63.14565125 273.09918747 60.99609375 270.93359375 C60.50765488 270.43685654 60.019216 269.94011932 59.51597595 269.42832947 C58.36275745 268.26661074 57.18395572 267.130377 56 266 C55.67 266 55.34 266 55 266 C55 333.98 55 401.96 55 472 C59.58840881 470.4705304 63.34972232 468.92319261 67.59375 466.7265625 C68.21300354 466.40715698 68.83225708 466.08775146 69.47027588 465.75866699 C71.4826131 464.71872634 73.4913986 463.67213563 75.5 462.625 C76.91172774 461.89295818 78.32351218 461.1610257 79.73535156 460.42919922 C88.3161029 455.97121056 96.82651291 451.40000488 105.2890625 446.72119141 C114.6967644 441.55350765 124.26370239 436.6996395 133.81970215 431.81402588 C142.60904594 427.3180225 151.36301081 422.78452527 160 418 C170.87602581 411.97802867 181.93639077 406.32353221 193.00585938 400.66796875 C203.71646913 395.1922371 214.35273309 389.60382469 225 384 C225 336.48 225 288.96 225 240 C222.55913178 240 219.86144818 241.96432577 217.66796875 243.04296875 Z " fill="#000000" transform="translate(211,6)"/>
</svg>
